<mxfile host="app.diagrams.net" agent="Mozilla/5.0 (Windows NT 10.0; Win64; x64) AppleWebKit/537.36 (KHTML, like Gecko) Chrome/137.0.0.0 Safari/537.36" version="27.1.4" pages="11">
  <diagram name="Modules" id="yhrnNWxQ3JYow8x2tBj6">
    <mxGraphModel dx="1130" dy="614" grid="1" gridSize="10" guides="1" tooltips="1" connect="1" arrows="1" fold="1" page="1" pageScale="1" pageWidth="827" pageHeight="1169" math="0" shadow="0">
      <root>
        <mxCell id="0" />
        <mxCell id="1" parent="0" />
        <mxCell id="WxIl2lNipEnlI-ToDJDK-1" value="Client UI&lt;div&gt;(Windows Forms)&lt;/div&gt;" style="rounded=0;whiteSpace=wrap;html=1;" parent="1" vertex="1">
          <mxGeometry x="280" y="160" width="160" height="80" as="geometry" />
        </mxCell>
        <mxCell id="WxIl2lNipEnlI-ToDJDK-2" value="Local Storage&lt;div&gt;(FileSystem)&lt;/div&gt;" style="rounded=0;whiteSpace=wrap;html=1;" parent="1" vertex="1">
          <mxGeometry x="280" y="320" width="160" height="80" as="geometry" />
        </mxCell>
        <mxCell id="WxIl2lNipEnlI-ToDJDK-3" value="Database&lt;div&gt;(PostgreSQL)&lt;/div&gt;" style="rounded=0;whiteSpace=wrap;html=1;" parent="1" vertex="1">
          <mxGeometry x="280" y="480" width="160" height="80" as="geometry" />
        </mxCell>
        <mxCell id="WxIl2lNipEnlI-ToDJDK-6" value="" style="endArrow=none;html=1;rounded=0;" parent="1" source="WxIl2lNipEnlI-ToDJDK-3" target="WxIl2lNipEnlI-ToDJDK-2" edge="1">
          <mxGeometry width="50" height="50" relative="1" as="geometry">
            <mxPoint x="170" y="450" as="sourcePoint" />
            <mxPoint x="220" y="400" as="targetPoint" />
          </mxGeometry>
        </mxCell>
        <mxCell id="WxIl2lNipEnlI-ToDJDK-7" value="" style="endArrow=none;html=1;rounded=0;" parent="1" source="WxIl2lNipEnlI-ToDJDK-2" target="WxIl2lNipEnlI-ToDJDK-1" edge="1">
          <mxGeometry width="50" height="50" relative="1" as="geometry">
            <mxPoint x="150" y="330" as="sourcePoint" />
            <mxPoint x="200" y="280" as="targetPoint" />
          </mxGeometry>
        </mxCell>
      </root>
    </mxGraphModel>
  </diagram>
  <diagram name="Блок схема" id="6jt15OmmC7dmr_feiTnh">
    <mxGraphModel dx="1725" dy="2107" grid="1" gridSize="10" guides="1" tooltips="1" connect="1" arrows="1" fold="1" page="1" pageScale="1" pageWidth="827" pageHeight="1169" math="0" shadow="0">
      <root>
        <mxCell id="0" />
        <mxCell id="1" parent="0" />
        <mxCell id="3ipi3cnK53qvR74pNa_r-1" value="Начало" style="rounded=1;whiteSpace=wrap;html=1;arcSize=48;" vertex="1" parent="1">
          <mxGeometry x="140" y="-460" width="160" height="40" as="geometry" />
        </mxCell>
        <mxCell id="3ipi3cnK53qvR74pNa_r-2" value="&lt;pre style=&quot;overflow: auto; padding: 9.144px 13.716px; text-wrap-mode: wrap; word-break: break-all; font-size: 12.573px; text-align: start; margin-top: 0px !important; margin-bottom: 0px !important;&quot;&gt;Очистка директории&lt;/pre&gt;" style="rounded=0;whiteSpace=wrap;html=1;" vertex="1" parent="1">
          <mxGeometry x="140" y="-260" width="160" height="80" as="geometry" />
        </mxCell>
        <mxCell id="3ipi3cnK53qvR74pNa_r-3" value="&lt;pre style=&quot;overflow: auto; padding: 9.144px 13.716px; text-wrap-mode: wrap; word-break: break-all; margin-top: 0px !important; margin-bottom: 0px !important;&quot;&gt;&lt;font face=&quot;Helvetica&quot; style=&quot;font-size: 11px;&quot;&gt;Попытка выполнить код&lt;/font&gt;&lt;/pre&gt;" style="rhombus;whiteSpace=wrap;html=1;align=center;" vertex="1" parent="1">
          <mxGeometry x="140" y="-140" width="160" height="80" as="geometry" />
        </mxCell>
        <mxCell id="3ipi3cnK53qvR74pNa_r-5" value="" style="endArrow=none;html=1;rounded=0;fontSize=12;startSize=8;endSize=8;curved=1;" edge="1" parent="1">
          <mxGeometry width="50" height="50" relative="1" as="geometry">
            <mxPoint x="220" y="20" as="sourcePoint" />
            <mxPoint x="220" y="-60" as="targetPoint" />
          </mxGeometry>
        </mxCell>
        <mxCell id="3ipi3cnK53qvR74pNa_r-6" value="Нет" style="text;html=1;align=center;verticalAlign=middle;whiteSpace=wrap;rounded=0;" vertex="1" parent="1">
          <mxGeometry x="300" y="-130" width="60" height="30" as="geometry" />
        </mxCell>
        <mxCell id="3ipi3cnK53qvR74pNa_r-7" style="edgeStyle=none;curved=1;rounded=0;orthogonalLoop=1;jettySize=auto;html=1;exitX=0.75;exitY=0;exitDx=0;exitDy=0;fontSize=12;startSize=8;endSize=8;" edge="1" parent="1" source="3ipi3cnK53qvR74pNa_r-6" target="3ipi3cnK53qvR74pNa_r-6">
          <mxGeometry relative="1" as="geometry" />
        </mxCell>
        <mxCell id="3ipi3cnK53qvR74pNa_r-8" value="" style="endArrow=none;html=1;rounded=0;fontSize=12;startSize=8;endSize=8;curved=1;" edge="1" parent="1">
          <mxGeometry width="50" height="50" relative="1" as="geometry">
            <mxPoint x="300" y="-100" as="sourcePoint" />
            <mxPoint x="420" y="-100" as="targetPoint" />
          </mxGeometry>
        </mxCell>
        <mxCell id="3ipi3cnK53qvR74pNa_r-9" value="" style="endArrow=none;html=1;rounded=0;fontSize=12;startSize=8;endSize=8;curved=1;" edge="1" parent="1">
          <mxGeometry width="50" height="50" relative="1" as="geometry">
            <mxPoint x="420" y="-100" as="sourcePoint" />
            <mxPoint x="420" as="targetPoint" />
          </mxGeometry>
        </mxCell>
        <mxCell id="3ipi3cnK53qvR74pNa_r-10" value="Да" style="text;html=1;align=center;verticalAlign=middle;whiteSpace=wrap;rounded=0;" vertex="1" parent="1">
          <mxGeometry x="220" y="-60" width="60" height="30" as="geometry" />
        </mxCell>
        <mxCell id="3ipi3cnK53qvR74pNa_r-11" value="&lt;div&gt;Получение атрибутов директорий&lt;/div&gt;" style="rounded=0;whiteSpace=wrap;html=1;" vertex="1" parent="1">
          <mxGeometry x="140" y="120" width="160" height="80" as="geometry" />
        </mxCell>
        <mxCell id="3ipi3cnK53qvR74pNa_r-12" value="Вызов исключения" style="rounded=0;whiteSpace=wrap;html=1;" vertex="1" parent="1">
          <mxGeometry x="340" width="160" height="80" as="geometry" />
        </mxCell>
        <mxCell id="3ipi3cnK53qvR74pNa_r-13" value="" style="endArrow=none;html=1;rounded=0;fontSize=12;startSize=8;endSize=8;curved=1;exitX=0.5;exitY=0;exitDx=0;exitDy=0;entryX=0.5;entryY=1;entryDx=0;entryDy=0;" edge="1" parent="1" source="3ipi3cnK53qvR74pNa_r-14" target="3ipi3cnK53qvR74pNa_r-11">
          <mxGeometry width="50" height="50" relative="1" as="geometry">
            <mxPoint x="200" y="290" as="sourcePoint" />
            <mxPoint x="220" y="220" as="targetPoint" />
          </mxGeometry>
        </mxCell>
        <mxCell id="3ipi3cnK53qvR74pNa_r-14" value="Добавление директории" style="rounded=0;whiteSpace=wrap;html=1;" vertex="1" parent="1">
          <mxGeometry x="140" y="240" width="160" height="80" as="geometry" />
        </mxCell>
        <mxCell id="3ipi3cnK53qvR74pNa_r-15" value="Вывод директорий с файлами в TreeView" style="shape=parallelogram;perimeter=parallelogramPerimeter;whiteSpace=wrap;html=1;fixedSize=1;" vertex="1" parent="1">
          <mxGeometry x="140" y="1120" width="160" height="80" as="geometry" />
        </mxCell>
        <mxCell id="3ipi3cnK53qvR74pNa_r-17" value="" style="endArrow=none;html=1;rounded=0;fontSize=12;startSize=8;endSize=8;curved=1;" edge="1" parent="1" source="3ipi3cnK53qvR74pNa_r-15">
          <mxGeometry width="50" height="50" relative="1" as="geometry">
            <mxPoint x="220" y="1080" as="sourcePoint" />
            <mxPoint x="220" y="1040" as="targetPoint" />
          </mxGeometry>
        </mxCell>
        <mxCell id="3ipi3cnK53qvR74pNa_r-18" value="" style="endArrow=classic;html=1;rounded=0;fontSize=12;startSize=8;endSize=8;exitX=0.5;exitY=1;exitDx=0;exitDy=0;edgeStyle=orthogonalEdgeStyle;" edge="1" parent="1" source="3ipi3cnK53qvR74pNa_r-12">
          <mxGeometry width="50" height="50" relative="1" as="geometry">
            <mxPoint x="410" y="380" as="sourcePoint" />
            <mxPoint x="220" y="1080" as="targetPoint" />
            <Array as="points">
              <mxPoint x="420" y="1080" />
            </Array>
          </mxGeometry>
        </mxCell>
        <mxCell id="3ipi3cnK53qvR74pNa_r-20" value="Конец" style="rounded=1;whiteSpace=wrap;html=1;arcSize=48;" vertex="1" parent="1">
          <mxGeometry x="140" y="1240" width="160" height="40" as="geometry" />
        </mxCell>
        <mxCell id="3ipi3cnK53qvR74pNa_r-23" value="" style="endArrow=none;html=1;rounded=0;fontSize=12;startSize=8;endSize=8;curved=1;" edge="1" parent="1">
          <mxGeometry width="50" height="50" relative="1" as="geometry">
            <mxPoint x="220" y="-380" as="sourcePoint" />
            <mxPoint x="220" y="-420" as="targetPoint" />
          </mxGeometry>
        </mxCell>
        <mxCell id="3ipi3cnK53qvR74pNa_r-24" value="" style="endArrow=none;html=1;rounded=0;fontSize=12;startSize=8;endSize=8;curved=1;" edge="1" parent="1" source="3ipi3cnK53qvR74pNa_r-20" target="3ipi3cnK53qvR74pNa_r-15">
          <mxGeometry width="50" height="50" relative="1" as="geometry">
            <mxPoint x="160" y="1360" as="sourcePoint" />
            <mxPoint x="210" y="1310" as="targetPoint" />
          </mxGeometry>
        </mxCell>
        <mxCell id="i2VZ5Z_llgO0lZZCtuH--1" value="Перебор директорий" style="shape=loopLimit;whiteSpace=wrap;html=1;size=25;" vertex="1" parent="1">
          <mxGeometry x="140" width="160" height="80" as="geometry" />
        </mxCell>
        <mxCell id="i2VZ5Z_llgO0lZZCtuH--3" value="" style="endArrow=none;html=1;rounded=0;fontSize=12;startSize=8;endSize=8;curved=1;" edge="1" parent="1">
          <mxGeometry width="50" height="50" relative="1" as="geometry">
            <mxPoint x="220" y="-140" as="sourcePoint" />
            <mxPoint x="220" y="-180" as="targetPoint" />
          </mxGeometry>
        </mxCell>
        <mxCell id="i2VZ5Z_llgO0lZZCtuH--4" value="&lt;pre style=&quot;overflow: auto; padding: 9.144px 13.716px; text-wrap-mode: wrap; word-break: break-all; font-size: 12.573px; text-align: start; margin-top: 0px !important; margin-bottom: 0px !important;&quot;&gt;Вызов метода&lt;/pre&gt;" style="rounded=0;whiteSpace=wrap;html=1;" vertex="1" parent="1">
          <mxGeometry x="140" y="-380" width="160" height="80" as="geometry" />
        </mxCell>
        <mxCell id="i2VZ5Z_llgO0lZZCtuH--5" value="" style="endArrow=none;html=1;rounded=0;fontSize=12;startSize=8;endSize=8;curved=1;" edge="1" parent="1">
          <mxGeometry width="50" height="50" relative="1" as="geometry">
            <mxPoint x="220" y="-260" as="sourcePoint" />
            <mxPoint x="220" y="-300" as="targetPoint" />
          </mxGeometry>
        </mxCell>
        <mxCell id="i2VZ5Z_llgO0lZZCtuH--6" value="" style="endArrow=none;html=1;rounded=0;fontSize=12;startSize=8;endSize=8;curved=1;exitX=0.5;exitY=0;exitDx=0;exitDy=0;" edge="1" parent="1">
          <mxGeometry width="50" height="50" relative="1" as="geometry">
            <mxPoint x="220" y="120" as="sourcePoint" />
            <mxPoint x="220" y="80" as="targetPoint" />
          </mxGeometry>
        </mxCell>
        <mxCell id="i2VZ5Z_llgO0lZZCtuH--7" value="Переход к следующей директории" style="shape=loopLimit;whiteSpace=wrap;html=1;size=25;direction=west;" vertex="1" parent="1">
          <mxGeometry x="140" y="360" width="160" height="80" as="geometry" />
        </mxCell>
        <mxCell id="i2VZ5Z_llgO0lZZCtuH--8" value="переход к следующему файлу" style="shape=loopLimit;whiteSpace=wrap;html=1;size=25;direction=west;" vertex="1" parent="1">
          <mxGeometry x="140" y="960" width="160" height="80" as="geometry" />
        </mxCell>
        <mxCell id="i2VZ5Z_llgO0lZZCtuH--9" value="Перебор файлов директории" style="shape=loopLimit;whiteSpace=wrap;html=1;size=25;direction=east;" vertex="1" parent="1">
          <mxGeometry x="140" y="480" width="160" height="80" as="geometry" />
        </mxCell>
        <mxCell id="i2VZ5Z_llgO0lZZCtuH--10" value="Получение иконки файла" style="rounded=0;whiteSpace=wrap;html=1;" vertex="1" parent="1">
          <mxGeometry x="140" y="600" width="160" height="80" as="geometry" />
        </mxCell>
        <mxCell id="i2VZ5Z_llgO0lZZCtuH--11" value="Получение атрибутов файла" style="rounded=0;whiteSpace=wrap;html=1;" vertex="1" parent="1">
          <mxGeometry x="140" y="720" width="160" height="80" as="geometry" />
        </mxCell>
        <mxCell id="i2VZ5Z_llgO0lZZCtuH--12" value="Добавление/отображение файла" style="rounded=0;whiteSpace=wrap;html=1;" vertex="1" parent="1">
          <mxGeometry x="140" y="840" width="160" height="80" as="geometry" />
        </mxCell>
        <mxCell id="i2VZ5Z_llgO0lZZCtuH--13" value="" style="endArrow=none;html=1;rounded=0;fontSize=12;startSize=8;endSize=8;curved=1;" edge="1" parent="1" source="3ipi3cnK53qvR74pNa_r-14" target="i2VZ5Z_llgO0lZZCtuH--7">
          <mxGeometry width="50" height="50" relative="1" as="geometry">
            <mxPoint x="270" y="270" as="sourcePoint" />
            <mxPoint x="270" y="230" as="targetPoint" />
          </mxGeometry>
        </mxCell>
        <mxCell id="i2VZ5Z_llgO0lZZCtuH--14" value="" style="endArrow=none;html=1;rounded=0;fontSize=12;startSize=8;endSize=8;curved=1;" edge="1" parent="1" source="i2VZ5Z_llgO0lZZCtuH--9" target="i2VZ5Z_llgO0lZZCtuH--7">
          <mxGeometry width="50" height="50" relative="1" as="geometry">
            <mxPoint x="360" y="430" as="sourcePoint" />
            <mxPoint x="360" y="390" as="targetPoint" />
          </mxGeometry>
        </mxCell>
        <mxCell id="i2VZ5Z_llgO0lZZCtuH--15" value="" style="endArrow=none;html=1;rounded=0;fontSize=12;startSize=8;endSize=8;curved=1;" edge="1" parent="1" source="i2VZ5Z_llgO0lZZCtuH--10" target="i2VZ5Z_llgO0lZZCtuH--9">
          <mxGeometry width="50" height="50" relative="1" as="geometry">
            <mxPoint x="370" y="560" as="sourcePoint" />
            <mxPoint x="370" y="520" as="targetPoint" />
          </mxGeometry>
        </mxCell>
        <mxCell id="i2VZ5Z_llgO0lZZCtuH--16" value="" style="endArrow=none;html=1;rounded=0;fontSize=12;startSize=8;endSize=8;curved=1;" edge="1" parent="1" source="i2VZ5Z_llgO0lZZCtuH--11" target="i2VZ5Z_llgO0lZZCtuH--10">
          <mxGeometry width="50" height="50" relative="1" as="geometry">
            <mxPoint x="430" y="680" as="sourcePoint" />
            <mxPoint x="430" y="640" as="targetPoint" />
          </mxGeometry>
        </mxCell>
        <mxCell id="i2VZ5Z_llgO0lZZCtuH--17" value="" style="endArrow=none;html=1;rounded=0;fontSize=12;startSize=8;endSize=8;curved=1;" edge="1" parent="1" source="i2VZ5Z_llgO0lZZCtuH--12" target="i2VZ5Z_llgO0lZZCtuH--11">
          <mxGeometry width="50" height="50" relative="1" as="geometry">
            <mxPoint x="390" y="790" as="sourcePoint" />
            <mxPoint x="390" y="750" as="targetPoint" />
          </mxGeometry>
        </mxCell>
        <mxCell id="i2VZ5Z_llgO0lZZCtuH--18" value="" style="endArrow=none;html=1;rounded=0;fontSize=12;startSize=8;endSize=8;curved=1;" edge="1" parent="1" source="i2VZ5Z_llgO0lZZCtuH--8" target="i2VZ5Z_llgO0lZZCtuH--12">
          <mxGeometry width="50" height="50" relative="1" as="geometry">
            <mxPoint x="290" y="890" as="sourcePoint" />
            <mxPoint x="290" y="850" as="targetPoint" />
          </mxGeometry>
        </mxCell>
      </root>
    </mxGraphModel>
  </diagram>
  <diagram name="REMAKE" id="fArTS_0Y42E0HfHLnh1O">
    <mxGraphModel dx="1639" dy="2060" grid="1" gridSize="10" guides="1" tooltips="1" connect="1" arrows="1" fold="1" page="1" pageScale="1" pageWidth="827" pageHeight="1169" math="0" shadow="0">
      <root>
        <mxCell id="0" />
        <mxCell id="1" parent="0" />
        <mxCell id="dgEdN-8CZHpA5I1vTJZM-1" value="ExamPapers&lt;br&gt;(или другая папка)" style="rounded=0;whiteSpace=wrap;html=1;" parent="1" vertex="1">
          <mxGeometry x="620" y="140" width="120" height="60" as="geometry" />
        </mxCell>
        <mxCell id="dgEdN-8CZHpA5I1vTJZM-2" value="&lt;div&gt;&lt;span style=&quot;background-color: transparent; color: light-dark(rgb(0, 0, 0), rgb(255, 255, 255));&quot;&gt;Папка(и) с материалом&lt;/span&gt;&lt;/div&gt;&lt;div&gt;&lt;br&gt;&lt;/div&gt;" style="rounded=0;whiteSpace=wrap;html=1;" parent="1" vertex="1">
          <mxGeometry x="280" y="150" width="120" height="60" as="geometry" />
        </mxCell>
        <mxCell id="dgEdN-8CZHpA5I1vTJZM-3" value="Название папки" style="ellipse;whiteSpace=wrap;html=1;" parent="1" vertex="1">
          <mxGeometry x="230" y="-10" width="120" height="80" as="geometry" />
        </mxCell>
        <mxCell id="dgEdN-8CZHpA5I1vTJZM-4" value="Содержимое(txt,docx, jpg/png)" style="ellipse;whiteSpace=wrap;html=1;" parent="1" vertex="1">
          <mxGeometry x="140" y="110" width="140" height="80" as="geometry" />
        </mxCell>
        <mxCell id="dgEdN-8CZHpA5I1vTJZM-5" value="" style="rhombus;whiteSpace=wrap;html=1;" parent="1" vertex="1">
          <mxGeometry x="490" y="130" width="80" height="80" as="geometry" />
        </mxCell>
        <mxCell id="dgEdN-8CZHpA5I1vTJZM-6" value="" style="endArrow=none;html=1;rounded=0;fontSize=12;startSize=8;endSize=8;curved=1;" parent="1" source="dgEdN-8CZHpA5I1vTJZM-2" target="dgEdN-8CZHpA5I1vTJZM-5" edge="1">
          <mxGeometry width="50" height="50" relative="1" as="geometry">
            <mxPoint x="450" y="240" as="sourcePoint" />
            <mxPoint x="500" y="190" as="targetPoint" />
          </mxGeometry>
        </mxCell>
        <mxCell id="dgEdN-8CZHpA5I1vTJZM-7" value="" style="endArrow=none;html=1;rounded=0;fontSize=12;startSize=8;endSize=8;curved=1;" parent="1" source="dgEdN-8CZHpA5I1vTJZM-1" target="dgEdN-8CZHpA5I1vTJZM-5" edge="1">
          <mxGeometry width="50" height="50" relative="1" as="geometry">
            <mxPoint x="470" y="290" as="sourcePoint" />
            <mxPoint x="520" y="240" as="targetPoint" />
          </mxGeometry>
        </mxCell>
        <mxCell id="dgEdN-8CZHpA5I1vTJZM-8" value="1" style="text;html=1;align=center;verticalAlign=middle;whiteSpace=wrap;rounded=0;" parent="1" vertex="1">
          <mxGeometry x="560" y="135" width="60" height="30" as="geometry" />
        </mxCell>
        <mxCell id="dgEdN-8CZHpA5I1vTJZM-9" value="N" style="text;html=1;align=center;verticalAlign=middle;whiteSpace=wrap;rounded=0;" parent="1" vertex="1">
          <mxGeometry x="440" y="130" width="60" height="30" as="geometry" />
        </mxCell>
        <mxCell id="dgEdN-8CZHpA5I1vTJZM-10" value="" style="endArrow=none;html=1;rounded=0;fontSize=12;startSize=8;endSize=8;curved=1;" parent="1" source="dgEdN-8CZHpA5I1vTJZM-3" target="dgEdN-8CZHpA5I1vTJZM-2" edge="1">
          <mxGeometry width="50" height="50" relative="1" as="geometry">
            <mxPoint x="200" y="140" as="sourcePoint" />
            <mxPoint x="250" y="90" as="targetPoint" />
          </mxGeometry>
        </mxCell>
        <mxCell id="dgEdN-8CZHpA5I1vTJZM-11" value="" style="endArrow=none;html=1;rounded=0;fontSize=12;startSize=8;endSize=8;curved=1;" parent="1" source="dgEdN-8CZHpA5I1vTJZM-4" target="dgEdN-8CZHpA5I1vTJZM-2" edge="1">
          <mxGeometry width="50" height="50" relative="1" as="geometry">
            <mxPoint x="180" y="210" as="sourcePoint" />
            <mxPoint x="230" y="160" as="targetPoint" />
          </mxGeometry>
        </mxCell>
        <mxCell id="dgEdN-8CZHpA5I1vTJZM-12" value="Test" style="rounded=0;whiteSpace=wrap;html=1;" parent="1" vertex="1">
          <mxGeometry x="620" y="370" width="120" height="60" as="geometry" />
        </mxCell>
        <mxCell id="dgEdN-8CZHpA5I1vTJZM-13" value="" style="rhombus;whiteSpace=wrap;html=1;" parent="1" vertex="1">
          <mxGeometry x="470" y="360" width="80" height="80" as="geometry" />
        </mxCell>
        <mxCell id="dgEdN-8CZHpA5I1vTJZM-14" value="" style="endArrow=none;html=1;rounded=0;fontSize=12;startSize=8;endSize=8;curved=1;" parent="1" source="dgEdN-8CZHpA5I1vTJZM-18" target="dgEdN-8CZHpA5I1vTJZM-13" edge="1">
          <mxGeometry width="50" height="50" relative="1" as="geometry">
            <mxPoint x="420" y="400" as="sourcePoint" />
            <mxPoint x="480" y="420" as="targetPoint" />
          </mxGeometry>
        </mxCell>
        <mxCell id="dgEdN-8CZHpA5I1vTJZM-15" value="" style="endArrow=none;html=1;rounded=0;fontSize=12;startSize=8;endSize=8;curved=1;" parent="1" source="dgEdN-8CZHpA5I1vTJZM-12" target="dgEdN-8CZHpA5I1vTJZM-13" edge="1">
          <mxGeometry width="50" height="50" relative="1" as="geometry">
            <mxPoint x="600" y="400" as="sourcePoint" />
            <mxPoint x="500" y="470" as="targetPoint" />
          </mxGeometry>
        </mxCell>
        <mxCell id="dgEdN-8CZHpA5I1vTJZM-16" value="1" style="text;html=1;align=center;verticalAlign=middle;whiteSpace=wrap;rounded=0;" parent="1" vertex="1">
          <mxGeometry x="540" y="365" width="60" height="30" as="geometry" />
        </mxCell>
        <mxCell id="dgEdN-8CZHpA5I1vTJZM-17" value="N" style="text;html=1;align=center;verticalAlign=middle;whiteSpace=wrap;rounded=0;" parent="1" vertex="1">
          <mxGeometry x="420" y="360" width="60" height="30" as="geometry" />
        </mxCell>
        <mxCell id="dgEdN-8CZHpA5I1vTJZM-18" value="Папка с тестом" style="rounded=0;whiteSpace=wrap;html=1;" parent="1" vertex="1">
          <mxGeometry x="300" y="370" width="120" height="60" as="geometry" />
        </mxCell>
        <mxCell id="dgEdN-8CZHpA5I1vTJZM-19" value="Название папки" style="ellipse;whiteSpace=wrap;html=1;" parent="1" vertex="1">
          <mxGeometry x="160" y="280" width="120" height="80" as="geometry" />
        </mxCell>
        <mxCell id="dgEdN-8CZHpA5I1vTJZM-20" value="" style="endArrow=none;html=1;rounded=0;fontSize=12;startSize=8;endSize=8;curved=1;" parent="1" source="dgEdN-8CZHpA5I1vTJZM-19" target="dgEdN-8CZHpA5I1vTJZM-18" edge="1">
          <mxGeometry width="50" height="50" relative="1" as="geometry">
            <mxPoint x="160" y="410" as="sourcePoint" />
            <mxPoint x="210" y="360" as="targetPoint" />
          </mxGeometry>
        </mxCell>
        <mxCell id="dgEdN-8CZHpA5I1vTJZM-21" value="" style="endArrow=none;html=1;rounded=0;fontSize=12;startSize=8;endSize=8;curved=1;" parent="1" source="dgEdN-8CZHpA5I1vTJZM-33" target="dgEdN-8CZHpA5I1vTJZM-18" edge="1">
          <mxGeometry width="50" height="50" relative="1" as="geometry">
            <mxPoint x="238.870893706988" y="412.8445824720011" as="sourcePoint" />
            <mxPoint x="190" y="430" as="targetPoint" />
          </mxGeometry>
        </mxCell>
        <mxCell id="dgEdN-8CZHpA5I1vTJZM-22" value="DemonstrationExamPreparationApp" style="rounded=0;whiteSpace=wrap;html=1;" parent="1" vertex="1">
          <mxGeometry x="760" y="240" width="240" height="80" as="geometry" />
        </mxCell>
        <mxCell id="dgEdN-8CZHpA5I1vTJZM-23" value="" style="rhombus;whiteSpace=wrap;html=1;" parent="1" vertex="1">
          <mxGeometry x="840" y="130" width="80" height="80" as="geometry" />
        </mxCell>
        <mxCell id="dgEdN-8CZHpA5I1vTJZM-24" value="" style="rhombus;whiteSpace=wrap;html=1;" parent="1" vertex="1">
          <mxGeometry x="840" y="360" width="80" height="80" as="geometry" />
        </mxCell>
        <mxCell id="dgEdN-8CZHpA5I1vTJZM-25" value="" style="endArrow=none;html=1;rounded=0;fontSize=12;startSize=8;endSize=8;curved=1;" parent="1" source="dgEdN-8CZHpA5I1vTJZM-1" target="dgEdN-8CZHpA5I1vTJZM-23" edge="1">
          <mxGeometry width="50" height="50" relative="1" as="geometry">
            <mxPoint x="770" y="220" as="sourcePoint" />
            <mxPoint x="820" y="170" as="targetPoint" />
          </mxGeometry>
        </mxCell>
        <mxCell id="dgEdN-8CZHpA5I1vTJZM-26" value="" style="endArrow=none;html=1;rounded=0;fontSize=12;startSize=8;endSize=8;curved=1;" parent="1" source="dgEdN-8CZHpA5I1vTJZM-12" target="dgEdN-8CZHpA5I1vTJZM-24" edge="1">
          <mxGeometry width="50" height="50" relative="1" as="geometry">
            <mxPoint x="740" y="460" as="sourcePoint" />
            <mxPoint x="790" y="410" as="targetPoint" />
          </mxGeometry>
        </mxCell>
        <mxCell id="dgEdN-8CZHpA5I1vTJZM-27" value="" style="endArrow=none;html=1;rounded=0;fontSize=12;startSize=8;endSize=8;curved=1;" parent="1" source="dgEdN-8CZHpA5I1vTJZM-24" target="dgEdN-8CZHpA5I1vTJZM-22" edge="1">
          <mxGeometry width="50" height="50" relative="1" as="geometry">
            <mxPoint x="750" y="530" as="sourcePoint" />
            <mxPoint x="800" y="480" as="targetPoint" />
          </mxGeometry>
        </mxCell>
        <mxCell id="dgEdN-8CZHpA5I1vTJZM-28" value="" style="endArrow=none;html=1;rounded=0;fontSize=12;startSize=8;endSize=8;curved=1;" parent="1" source="dgEdN-8CZHpA5I1vTJZM-22" target="dgEdN-8CZHpA5I1vTJZM-23" edge="1">
          <mxGeometry width="50" height="50" relative="1" as="geometry">
            <mxPoint x="700" y="300" as="sourcePoint" />
            <mxPoint x="750" y="250" as="targetPoint" />
          </mxGeometry>
        </mxCell>
        <mxCell id="dgEdN-8CZHpA5I1vTJZM-29" value="1" style="text;html=1;align=center;verticalAlign=middle;whiteSpace=wrap;rounded=0;" parent="1" vertex="1">
          <mxGeometry x="820" y="210" width="60" height="30" as="geometry" />
        </mxCell>
        <mxCell id="dgEdN-8CZHpA5I1vTJZM-30" value="1" style="text;html=1;align=center;verticalAlign=middle;whiteSpace=wrap;rounded=0;" parent="1" vertex="1">
          <mxGeometry x="810" y="330" width="60" height="30" as="geometry" />
        </mxCell>
        <mxCell id="dgEdN-8CZHpA5I1vTJZM-31" value="1" style="text;html=1;align=center;verticalAlign=middle;whiteSpace=wrap;rounded=0;" parent="1" vertex="1">
          <mxGeometry x="750" y="360" width="60" height="30" as="geometry" />
        </mxCell>
        <mxCell id="dgEdN-8CZHpA5I1vTJZM-32" value="N" style="text;html=1;align=center;verticalAlign=middle;whiteSpace=wrap;rounded=0;" parent="1" vertex="1">
          <mxGeometry x="750" y="135" width="60" height="30" as="geometry" />
        </mxCell>
        <mxCell id="dgEdN-8CZHpA5I1vTJZM-33" value="test_X.txt" style="ellipse;whiteSpace=wrap;html=1;" parent="1" vertex="1">
          <mxGeometry x="140" y="390" width="120" height="80" as="geometry" />
        </mxCell>
      </root>
    </mxGraphModel>
  </diagram>
  <diagram name="IDEF0" id="5XkKvty5plYY2UGaQ5jQ">
    <mxGraphModel dx="780" dy="424" grid="1" gridSize="10" guides="1" tooltips="1" connect="1" arrows="1" fold="1" page="1" pageScale="1" pageWidth="827" pageHeight="1169" math="0" shadow="0">
      <root>
        <mxCell id="0" />
        <mxCell id="1" parent="0" />
        <mxCell id="n72EwVgZrVPxudYhiCM0-1" value="Подготовка к демонстрационному экзамену" style="rounded=0;whiteSpace=wrap;html=1;" parent="1" vertex="1">
          <mxGeometry x="320" y="280" width="200" height="120" as="geometry" />
        </mxCell>
        <mxCell id="n72EwVgZrVPxudYhiCM0-2" value="" style="endArrow=classic;html=1;rounded=0;entryX=-0.016;entryY=0.157;entryDx=0;entryDy=0;entryPerimeter=0;" parent="1" edge="1">
          <mxGeometry width="50" height="50" relative="1" as="geometry">
            <mxPoint x="133.2" y="310.58" as="sourcePoint" />
            <mxPoint x="319.99999999999994" y="309.4199999999999" as="targetPoint" />
          </mxGeometry>
        </mxCell>
        <mxCell id="n72EwVgZrVPxudYhiCM0-3" value="Материалы для подготовки" style="text;html=1;align=center;verticalAlign=middle;whiteSpace=wrap;rounded=0;" parent="1" vertex="1">
          <mxGeometry x="160" y="279.42" width="130" height="30" as="geometry" />
        </mxCell>
        <mxCell id="n72EwVgZrVPxudYhiCM0-7" value="" style="endArrow=classic;html=1;rounded=0;" parent="1" edge="1">
          <mxGeometry width="50" height="50" relative="1" as="geometry">
            <mxPoint x="360" y="170" as="sourcePoint" />
            <mxPoint x="360" y="280" as="targetPoint" />
          </mxGeometry>
        </mxCell>
        <mxCell id="n72EwVgZrVPxudYhiCM0-8" value="" style="endArrow=classic;html=1;rounded=0;" parent="1" edge="1">
          <mxGeometry width="50" height="50" relative="1" as="geometry">
            <mxPoint x="480" y="170" as="sourcePoint" />
            <mxPoint x="480" y="280" as="targetPoint" />
          </mxGeometry>
        </mxCell>
        <mxCell id="n72EwVgZrVPxudYhiCM0-9" value="Руководство оператора" style="text;html=1;align=center;verticalAlign=middle;whiteSpace=wrap;rounded=0;" parent="1" vertex="1">
          <mxGeometry x="440" y="120" width="80" height="40" as="geometry" />
        </mxCell>
        <mxCell id="n72EwVgZrVPxudYhiCM0-11" value="" style="endArrow=classic;html=1;rounded=0;entryX=-0.016;entryY=0.157;entryDx=0;entryDy=0;entryPerimeter=0;" parent="1" edge="1">
          <mxGeometry width="50" height="50" relative="1" as="geometry">
            <mxPoint x="520" y="340" as="sourcePoint" />
            <mxPoint x="706.8" y="338.8399999999999" as="targetPoint" />
          </mxGeometry>
        </mxCell>
        <mxCell id="n72EwVgZrVPxudYhiCM0-12" value="Подготовленный студент" style="text;html=1;align=center;verticalAlign=middle;whiteSpace=wrap;rounded=0;" parent="1" vertex="1">
          <mxGeometry x="546.8" y="309.42" width="130" height="30" as="geometry" />
        </mxCell>
        <mxCell id="n72EwVgZrVPxudYhiCM0-13" value="" style="endArrow=classic;html=1;rounded=0;" parent="1" edge="1">
          <mxGeometry width="50" height="50" relative="1" as="geometry">
            <mxPoint x="360" y="510" as="sourcePoint" />
            <mxPoint x="360" y="400" as="targetPoint" />
          </mxGeometry>
        </mxCell>
        <mxCell id="n72EwVgZrVPxudYhiCM0-14" value="Пользователь" style="text;html=1;align=center;verticalAlign=middle;whiteSpace=wrap;rounded=0;" parent="1" vertex="1">
          <mxGeometry x="270" y="430" width="80" height="40" as="geometry" />
        </mxCell>
        <mxCell id="n72EwVgZrVPxudYhiCM0-15" value="" style="endArrow=classic;html=1;rounded=0;" parent="1" edge="1">
          <mxGeometry width="50" height="50" relative="1" as="geometry">
            <mxPoint x="480" y="510" as="sourcePoint" />
            <mxPoint x="480" y="400" as="targetPoint" />
          </mxGeometry>
        </mxCell>
        <mxCell id="n72EwVgZrVPxudYhiCM0-16" value="Приложение" style="text;html=1;align=center;verticalAlign=middle;whiteSpace=wrap;rounded=0;" parent="1" vertex="1">
          <mxGeometry x="500" y="430" width="80" height="40" as="geometry" />
        </mxCell>
        <mxCell id="n72EwVgZrVPxudYhiCM0-17" value="Приказ Министерства просвещения РФ" style="text;html=1;align=center;verticalAlign=middle;whiteSpace=wrap;rounded=0;" parent="1" vertex="1">
          <mxGeometry x="304" y="120" width="110" height="40" as="geometry" />
        </mxCell>
        <mxCell id="7v4AgdwyVSaIKt_yn2yu-1" value="" style="endArrow=classic;html=1;rounded=0;entryX=-0.016;entryY=0.157;entryDx=0;entryDy=0;entryPerimeter=0;" edge="1" parent="1">
          <mxGeometry width="50" height="50" relative="1" as="geometry">
            <mxPoint x="131.6" y="370.58" as="sourcePoint" />
            <mxPoint x="318.4" y="369.4199999999999" as="targetPoint" />
          </mxGeometry>
        </mxCell>
        <mxCell id="7v4AgdwyVSaIKt_yn2yu-2" value="Список используемого ПО" style="text;html=1;align=center;verticalAlign=middle;whiteSpace=wrap;rounded=0;" vertex="1" parent="1">
          <mxGeometry x="160" y="339.42" width="130" height="30" as="geometry" />
        </mxCell>
      </root>
    </mxGraphModel>
  </diagram>
  <diagram name="DEKOM IDEF0" id="m-ABpt4AhxVwPwwbDd0S">
    <mxGraphModel dx="1764" dy="509" grid="1" gridSize="10" guides="1" tooltips="1" connect="1" arrows="1" fold="1" page="1" pageScale="1" pageWidth="827" pageHeight="1169" math="0" shadow="0">
      <root>
        <mxCell id="0" />
        <mxCell id="1" parent="0" />
        <mxCell id="aRu9oxOjFt9kT_MxPjlr-1" value="Выполнение задания" style="rounded=0;whiteSpace=wrap;html=1;" parent="1" vertex="1">
          <mxGeometry x="960" y="720" width="200" height="120" as="geometry" />
        </mxCell>
        <mxCell id="aRu9oxOjFt9kT_MxPjlr-2" value="" style="endArrow=classic;html=1;rounded=0;entryX=0;entryY=0.5;entryDx=0;entryDy=0;exitX=1;exitY=0.5;exitDx=0;exitDy=0;edgeStyle=orthogonalEdgeStyle;" parent="1" source="aRu9oxOjFt9kT_MxPjlr-18" target="aRu9oxOjFt9kT_MxPjlr-1" edge="1">
          <mxGeometry width="50" height="50" relative="1" as="geometry">
            <mxPoint x="780" y="809.9999999999999" as="sourcePoint" />
            <mxPoint x="966.8" y="808.8399999999998" as="targetPoint" />
            <Array as="points">
              <mxPoint x="760" y="660" />
              <mxPoint x="760" y="780" />
            </Array>
          </mxGeometry>
        </mxCell>
        <mxCell id="aRu9oxOjFt9kT_MxPjlr-7" value="Руководство оператора" style="text;html=1;align=center;verticalAlign=middle;whiteSpace=wrap;rounded=0;" parent="1" vertex="1">
          <mxGeometry x="940" y="250" width="80" height="40" as="geometry" />
        </mxCell>
        <mxCell id="aRu9oxOjFt9kT_MxPjlr-9" value="" style="endArrow=classic;html=1;rounded=0;entryX=-0.016;entryY=0.157;entryDx=0;entryDy=0;entryPerimeter=0;exitX=1;exitY=0.5;exitDx=0;exitDy=0;" parent="1" source="aRu9oxOjFt9kT_MxPjlr-1" edge="1">
          <mxGeometry width="50" height="50" relative="1" as="geometry">
            <mxPoint x="1166.8" y="780" as="sourcePoint" />
            <mxPoint x="1353.6" y="778.8399999999999" as="targetPoint" />
          </mxGeometry>
        </mxCell>
        <mxCell id="aRu9oxOjFt9kT_MxPjlr-10" value="Подготовленный студент" style="text;html=1;align=center;verticalAlign=middle;whiteSpace=wrap;rounded=0;" parent="1" vertex="1">
          <mxGeometry x="1193.6" y="749.4200000000001" width="130" height="30" as="geometry" />
        </mxCell>
        <mxCell id="aRu9oxOjFt9kT_MxPjlr-11" value="" style="endArrow=classic;html=1;rounded=0;entryX=0.25;entryY=1;entryDx=0;entryDy=0;exitX=0.5;exitY=0;exitDx=0;exitDy=0;edgeStyle=elbowEdgeStyle;elbow=vertical;" parent="1" source="aRu9oxOjFt9kT_MxPjlr-12" target="aRu9oxOjFt9kT_MxPjlr-1" edge="1">
          <mxGeometry width="50" height="50" relative="1" as="geometry">
            <mxPoint x="509.99999999999994" y="1110" as="sourcePoint" />
            <mxPoint x="509.99999999999994" y="1000" as="targetPoint" />
            <Array as="points">
              <mxPoint x="870" y="880" />
            </Array>
          </mxGeometry>
        </mxCell>
        <mxCell id="aRu9oxOjFt9kT_MxPjlr-31" style="edgeStyle=orthogonalEdgeStyle;rounded=0;orthogonalLoop=1;jettySize=auto;html=1;exitX=0.5;exitY=0;exitDx=0;exitDy=0;entryX=0.5;entryY=1;entryDx=0;entryDy=0;" parent="1" source="aRu9oxOjFt9kT_MxPjlr-12" target="aRu9oxOjFt9kT_MxPjlr-17" edge="1">
          <mxGeometry relative="1" as="geometry">
            <Array as="points">
              <mxPoint x="410" y="880" />
              <mxPoint x="220" y="880" />
            </Array>
          </mxGeometry>
        </mxCell>
        <mxCell id="aRu9oxOjFt9kT_MxPjlr-12" value="Пользователь" style="text;html=1;align=center;verticalAlign=middle;whiteSpace=wrap;rounded=0;" parent="1" vertex="1">
          <mxGeometry x="370" y="1080" width="80" height="40" as="geometry" />
        </mxCell>
        <mxCell id="aRu9oxOjFt9kT_MxPjlr-13" value="" style="endArrow=classic;html=1;rounded=0;entryX=0.767;entryY=1.003;entryDx=0;entryDy=0;exitX=0.5;exitY=0;exitDx=0;exitDy=0;edgeStyle=orthogonalEdgeStyle;entryPerimeter=0;" parent="1" source="aRu9oxOjFt9kT_MxPjlr-14" target="aRu9oxOjFt9kT_MxPjlr-1" edge="1">
          <mxGeometry width="50" height="50" relative="1" as="geometry">
            <mxPoint x="718.5699999999999" y="1110" as="sourcePoint" />
            <mxPoint x="718.5699999999999" y="1000" as="targetPoint" />
          </mxGeometry>
        </mxCell>
        <mxCell id="aRu9oxOjFt9kT_MxPjlr-24" style="edgeStyle=orthogonalEdgeStyle;rounded=0;orthogonalLoop=1;jettySize=auto;html=1;exitX=0.5;exitY=0;exitDx=0;exitDy=0;entryX=0.75;entryY=1;entryDx=0;entryDy=0;" parent="1" source="aRu9oxOjFt9kT_MxPjlr-14" edge="1">
          <mxGeometry relative="1" as="geometry">
            <mxPoint x="950" y="1080" as="sourcePoint" />
            <mxPoint x="660" y="720" as="targetPoint" />
            <Array as="points">
              <mxPoint x="960" y="960" />
              <mxPoint x="660" y="960" />
            </Array>
          </mxGeometry>
        </mxCell>
        <mxCell id="aRu9oxOjFt9kT_MxPjlr-14" value="Приложение" style="text;html=1;align=center;verticalAlign=middle;whiteSpace=wrap;rounded=0;" parent="1" vertex="1">
          <mxGeometry x="920" y="1080" width="80" height="40" as="geometry" />
        </mxCell>
        <mxCell id="aRu9oxOjFt9kT_MxPjlr-15" value="Приказ Министерства просвещения РФ" style="text;html=1;align=center;verticalAlign=middle;whiteSpace=wrap;rounded=0;" parent="1" vertex="1">
          <mxGeometry x="730" y="250" width="100" height="40" as="geometry" />
        </mxCell>
        <mxCell id="aRu9oxOjFt9kT_MxPjlr-17" value="Загрузка вариантов заданий" style="rounded=0;whiteSpace=wrap;html=1;" parent="1" vertex="1">
          <mxGeometry x="120" y="480" width="200" height="120" as="geometry" />
        </mxCell>
        <mxCell id="aRu9oxOjFt9kT_MxPjlr-18" value="Аналитика данных для выполнения задания" style="rounded=0;whiteSpace=wrap;html=1;" parent="1" vertex="1">
          <mxGeometry x="520" y="600" width="200" height="120" as="geometry" />
        </mxCell>
        <mxCell id="aRu9oxOjFt9kT_MxPjlr-19" value="" style="endArrow=classic;html=1;rounded=0;entryX=0.75;entryY=0;entryDx=0;entryDy=0;exitX=0.5;exitY=1;exitDx=0;exitDy=0;edgeStyle=orthogonalEdgeStyle;" parent="1" source="aRu9oxOjFt9kT_MxPjlr-7" edge="1">
          <mxGeometry width="50" height="50" relative="1" as="geometry">
            <mxPoint x="680" y="390" as="sourcePoint" />
            <mxPoint x="680" y="600" as="targetPoint" />
            <Array as="points">
              <mxPoint x="980" y="290" />
              <mxPoint x="980" y="360" />
              <mxPoint x="680" y="360" />
            </Array>
          </mxGeometry>
        </mxCell>
        <mxCell id="aRu9oxOjFt9kT_MxPjlr-21" value="" style="endArrow=classic;html=1;rounded=0;entryX=0.804;entryY=0.002;entryDx=0;entryDy=0;exitX=0.5;exitY=1;exitDx=0;exitDy=0;edgeStyle=orthogonalEdgeStyle;entryPerimeter=0;" parent="1" source="aRu9oxOjFt9kT_MxPjlr-7" target="aRu9oxOjFt9kT_MxPjlr-1" edge="1">
          <mxGeometry width="50" height="50" relative="1" as="geometry">
            <mxPoint x="960" y="480" as="sourcePoint" />
            <mxPoint x="1010" y="430" as="targetPoint" />
            <Array as="points">
              <mxPoint x="980" y="290" />
              <mxPoint x="980" y="360" />
              <mxPoint x="1121" y="360" />
            </Array>
          </mxGeometry>
        </mxCell>
        <mxCell id="aRu9oxOjFt9kT_MxPjlr-22" value="" style="endArrow=classic;html=1;rounded=0;entryX=0.5;entryY=0;entryDx=0;entryDy=0;exitX=0.5;exitY=1;exitDx=0;exitDy=0;edgeStyle=orthogonalEdgeStyle;" parent="1" source="aRu9oxOjFt9kT_MxPjlr-15" target="aRu9oxOjFt9kT_MxPjlr-18" edge="1">
          <mxGeometry width="50" height="50" relative="1" as="geometry">
            <mxPoint x="600" y="460" as="sourcePoint" />
            <mxPoint x="650" y="410" as="targetPoint" />
            <Array as="points">
              <mxPoint x="780" y="320" />
              <mxPoint x="620" y="320" />
            </Array>
          </mxGeometry>
        </mxCell>
        <mxCell id="aRu9oxOjFt9kT_MxPjlr-23" value="" style="endArrow=classic;html=1;rounded=0;entryX=0.534;entryY=0.002;entryDx=0;entryDy=0;exitX=0.5;exitY=1;exitDx=0;exitDy=0;edgeStyle=orthogonalEdgeStyle;entryPerimeter=0;" parent="1" source="aRu9oxOjFt9kT_MxPjlr-15" target="aRu9oxOjFt9kT_MxPjlr-1" edge="1">
          <mxGeometry width="50" height="50" relative="1" as="geometry">
            <mxPoint x="820" y="570" as="sourcePoint" />
            <mxPoint x="870" y="520" as="targetPoint" />
            <Array as="points">
              <mxPoint x="780" y="320" />
              <mxPoint x="1067" y="320" />
            </Array>
          </mxGeometry>
        </mxCell>
        <mxCell id="aRu9oxOjFt9kT_MxPjlr-25" value="" style="endArrow=classic;html=1;rounded=0;exitX=0.5;exitY=0;exitDx=0;exitDy=0;edgeStyle=orthogonalEdgeStyle;" parent="1" source="aRu9oxOjFt9kT_MxPjlr-12" edge="1">
          <mxGeometry width="50" height="50" relative="1" as="geometry">
            <mxPoint x="520" y="890" as="sourcePoint" />
            <mxPoint x="580" y="720" as="targetPoint" />
            <Array as="points">
              <mxPoint x="680" y="880" />
              <mxPoint x="580" y="880" />
              <mxPoint x="580" y="720" />
            </Array>
          </mxGeometry>
        </mxCell>
        <mxCell id="aRu9oxOjFt9kT_MxPjlr-27" value="" style="endArrow=classic;html=1;rounded=0;exitX=1;exitY=0.5;exitDx=0;exitDy=0;entryX=0;entryY=0.5;entryDx=0;entryDy=0;edgeStyle=orthogonalEdgeStyle;" parent="1" source="aRu9oxOjFt9kT_MxPjlr-17" target="aRu9oxOjFt9kT_MxPjlr-18" edge="1">
          <mxGeometry width="50" height="50" relative="1" as="geometry">
            <mxPoint x="340" y="570" as="sourcePoint" />
            <mxPoint x="390" y="520" as="targetPoint" />
          </mxGeometry>
        </mxCell>
        <mxCell id="qusH7JzvXBXfzkiJXjR4-2" value="Данные для работы" style="text;html=1;align=center;verticalAlign=middle;whiteSpace=wrap;rounded=0;" parent="1" vertex="1">
          <mxGeometry x="827" y="749.42" width="110" height="30" as="geometry" />
        </mxCell>
        <mxCell id="qusH7JzvXBXfzkiJXjR4-3" value="Загруженные варианты заданий" style="text;html=1;align=center;verticalAlign=middle;whiteSpace=wrap;rounded=0;" parent="1" vertex="1">
          <mxGeometry x="330" y="510" width="130" height="30" as="geometry" />
        </mxCell>
        <mxCell id="qusH7JzvXBXfzkiJXjR4-4" value="" style="endArrow=classic;html=1;rounded=0;entryX=0.25;entryY=0;entryDx=0;entryDy=0;edgeStyle=orthogonalEdgeStyle;" parent="1" source="aRu9oxOjFt9kT_MxPjlr-15" target="aRu9oxOjFt9kT_MxPjlr-17" edge="1">
          <mxGeometry width="50" height="50" relative="1" as="geometry">
            <mxPoint x="310" y="360" as="sourcePoint" />
            <mxPoint x="360" y="310" as="targetPoint" />
            <Array as="points">
              <mxPoint x="780" y="320" />
              <mxPoint x="170" y="320" />
            </Array>
          </mxGeometry>
        </mxCell>
        <mxCell id="qusH7JzvXBXfzkiJXjR4-5" value="" style="endArrow=classic;html=1;rounded=0;entryX=0.75;entryY=0;entryDx=0;entryDy=0;edgeStyle=orthogonalEdgeStyle;" parent="1" source="aRu9oxOjFt9kT_MxPjlr-7" target="aRu9oxOjFt9kT_MxPjlr-17" edge="1">
          <mxGeometry width="50" height="50" relative="1" as="geometry">
            <mxPoint x="420" y="450" as="sourcePoint" />
            <mxPoint x="470" y="400" as="targetPoint" />
            <Array as="points">
              <mxPoint x="980" y="360" />
              <mxPoint x="270" y="360" />
            </Array>
          </mxGeometry>
        </mxCell>
        <mxCell id="lbEDNUx7dAYSs4ZzUaij-1" value="" style="endArrow=classic;html=1;rounded=0;entryX=-0.016;entryY=0.157;entryDx=0;entryDy=0;entryPerimeter=0;" edge="1" parent="1">
          <mxGeometry width="50" height="50" relative="1" as="geometry">
            <mxPoint x="-66.80000000000001" y="511.15999999999997" as="sourcePoint" />
            <mxPoint x="119.99999999999994" y="509.9999999999999" as="targetPoint" />
          </mxGeometry>
        </mxCell>
        <mxCell id="lbEDNUx7dAYSs4ZzUaij-2" value="Материалы для подготовки" style="text;html=1;align=center;verticalAlign=middle;whiteSpace=wrap;rounded=0;" vertex="1" parent="1">
          <mxGeometry x="-40" y="480" width="130" height="30" as="geometry" />
        </mxCell>
        <mxCell id="lbEDNUx7dAYSs4ZzUaij-3" value="" style="endArrow=classic;html=1;rounded=0;entryX=-0.016;entryY=0.157;entryDx=0;entryDy=0;entryPerimeter=0;" edge="1" parent="1">
          <mxGeometry width="50" height="50" relative="1" as="geometry">
            <mxPoint x="-68.4" y="571.16" as="sourcePoint" />
            <mxPoint x="118.39999999999998" y="569.9999999999999" as="targetPoint" />
          </mxGeometry>
        </mxCell>
        <mxCell id="lbEDNUx7dAYSs4ZzUaij-4" value="Список используемого ПО" style="text;html=1;align=center;verticalAlign=middle;whiteSpace=wrap;rounded=0;" vertex="1" parent="1">
          <mxGeometry x="-40" y="540" width="130" height="30" as="geometry" />
        </mxCell>
      </root>
    </mxGraphModel>
  </diagram>
  <diagram name="PRETENDENT" id="S2KXy7Xibe2f4QHkbmNr">
    <mxGraphModel dx="1130" dy="614" grid="1" gridSize="10" guides="1" tooltips="1" connect="1" arrows="1" fold="1" page="1" pageScale="1" pageWidth="827" pageHeight="1169" math="0" shadow="0">
      <root>
        <mxCell id="0" />
        <mxCell id="1" parent="0" />
        <mxCell id="OjE6QcOV1WnEATgF1ANK-3" value="" style="rounded=0;whiteSpace=wrap;html=1;" parent="1" vertex="1">
          <mxGeometry x="240" width="240" height="370" as="geometry" />
        </mxCell>
        <mxCell id="OjE6QcOV1WnEATgF1ANK-5" value="Добавлять учебные материалы" style="ellipse;whiteSpace=wrap;html=1;" parent="1" vertex="1">
          <mxGeometry x="310" y="10" width="90" height="60" as="geometry" />
        </mxCell>
        <mxCell id="OjE6QcOV1WnEATgF1ANK-6" value="Добавлять варианты заданий" style="ellipse;whiteSpace=wrap;html=1;" parent="1" vertex="1">
          <mxGeometry x="310" y="150" width="90" height="60" as="geometry" />
        </mxCell>
        <mxCell id="OjE6QcOV1WnEATgF1ANK-7" value="Изучать учебный материал" style="ellipse;whiteSpace=wrap;html=1;" parent="1" vertex="1">
          <mxGeometry x="310" y="220" width="90" height="60" as="geometry" />
        </mxCell>
        <mxCell id="OjE6QcOV1WnEATgF1ANK-8" value="Проходить варианты заданий" style="ellipse;whiteSpace=wrap;html=1;" parent="1" vertex="1">
          <mxGeometry x="310" y="290" width="90" height="60" as="geometry" />
        </mxCell>
        <mxCell id="OjE6QcOV1WnEATgF1ANK-10" style="rounded=0;orthogonalLoop=1;jettySize=auto;html=1;exitX=0.5;exitY=0.5;exitDx=0;exitDy=0;exitPerimeter=0;" parent="1" source="OjE6QcOV1WnEATgF1ANK-1" target="OjE6QcOV1WnEATgF1ANK-5" edge="1">
          <mxGeometry relative="1" as="geometry" />
        </mxCell>
        <mxCell id="OjE6QcOV1WnEATgF1ANK-11" style="rounded=0;orthogonalLoop=1;jettySize=auto;html=1;exitX=0.5;exitY=0.5;exitDx=0;exitDy=0;exitPerimeter=0;" parent="1" source="OjE6QcOV1WnEATgF1ANK-1" target="OjE6QcOV1WnEATgF1ANK-6" edge="1">
          <mxGeometry relative="1" as="geometry" />
        </mxCell>
        <mxCell id="OjE6QcOV1WnEATgF1ANK-12" style="rounded=0;orthogonalLoop=1;jettySize=auto;html=1;exitX=0.5;exitY=0.5;exitDx=0;exitDy=0;exitPerimeter=0;" parent="1" source="OjE6QcOV1WnEATgF1ANK-1" target="OjE6QcOV1WnEATgF1ANK-7" edge="1">
          <mxGeometry relative="1" as="geometry" />
        </mxCell>
        <mxCell id="OjE6QcOV1WnEATgF1ANK-13" style="rounded=0;orthogonalLoop=1;jettySize=auto;html=1;exitX=0.5;exitY=0.5;exitDx=0;exitDy=0;exitPerimeter=0;" parent="1" source="OjE6QcOV1WnEATgF1ANK-1" target="OjE6QcOV1WnEATgF1ANK-8" edge="1">
          <mxGeometry relative="1" as="geometry" />
        </mxCell>
        <mxCell id="iBG5IQZbzGf9Gm8H_M3j-2" style="rounded=0;orthogonalLoop=1;jettySize=auto;html=1;exitX=0.5;exitY=0.5;exitDx=0;exitDy=0;exitPerimeter=0;" edge="1" parent="1" source="OjE6QcOV1WnEATgF1ANK-1" target="iBG5IQZbzGf9Gm8H_M3j-1">
          <mxGeometry relative="1" as="geometry" />
        </mxCell>
        <mxCell id="OjE6QcOV1WnEATgF1ANK-1" value="Администратор" style="shape=umlActor;verticalLabelPosition=bottom;verticalAlign=top;html=1;outlineConnect=0;" parent="1" vertex="1">
          <mxGeometry x="160" y="160" width="40" height="80" as="geometry" />
        </mxCell>
        <mxCell id="OjE6QcOV1WnEATgF1ANK-14" style="rounded=0;orthogonalLoop=1;jettySize=auto;html=1;exitX=0.5;exitY=0.5;exitDx=0;exitDy=0;exitPerimeter=0;" parent="1" source="OjE6QcOV1WnEATgF1ANK-2" target="OjE6QcOV1WnEATgF1ANK-7" edge="1">
          <mxGeometry relative="1" as="geometry" />
        </mxCell>
        <mxCell id="OjE6QcOV1WnEATgF1ANK-15" style="rounded=0;orthogonalLoop=1;jettySize=auto;html=1;exitX=0.5;exitY=0.5;exitDx=0;exitDy=0;exitPerimeter=0;" parent="1" source="OjE6QcOV1WnEATgF1ANK-2" target="OjE6QcOV1WnEATgF1ANK-8" edge="1">
          <mxGeometry relative="1" as="geometry" />
        </mxCell>
        <mxCell id="OjE6QcOV1WnEATgF1ANK-2" value="Пользователь" style="shape=umlActor;verticalLabelPosition=bottom;verticalAlign=top;html=1;outlineConnect=0;" parent="1" vertex="1">
          <mxGeometry x="560" y="240" width="40" height="80" as="geometry" />
        </mxCell>
        <mxCell id="eSEK_fv8UlKxiPN-UXVq-2" style="rounded=0;orthogonalLoop=1;jettySize=auto;html=1;exitX=0.5;exitY=0.5;exitDx=0;exitDy=0;exitPerimeter=0;" parent="1" source="eSEK_fv8UlKxiPN-UXVq-1" target="OjE6QcOV1WnEATgF1ANK-5" edge="1">
          <mxGeometry relative="1" as="geometry" />
        </mxCell>
        <mxCell id="G8i1Fr55m5y-tpaHzhN0-1" style="rounded=0;orthogonalLoop=1;jettySize=auto;html=1;" edge="1" parent="1" source="eSEK_fv8UlKxiPN-UXVq-1" target="iBG5IQZbzGf9Gm8H_M3j-1">
          <mxGeometry relative="1" as="geometry" />
        </mxCell>
        <mxCell id="eSEK_fv8UlKxiPN-UXVq-1" value="Преподаватель" style="shape=umlActor;verticalLabelPosition=bottom;verticalAlign=top;html=1;outlineConnect=0;" parent="1" vertex="1">
          <mxGeometry x="560" y="40" width="40" height="80" as="geometry" />
        </mxCell>
        <mxCell id="eSEK_fv8UlKxiPN-UXVq-3" style="rounded=0;orthogonalLoop=1;jettySize=auto;html=1;exitX=0.5;exitY=0.5;exitDx=0;exitDy=0;exitPerimeter=0;" parent="1" source="eSEK_fv8UlKxiPN-UXVq-1" target="OjE6QcOV1WnEATgF1ANK-6" edge="1">
          <mxGeometry relative="1" as="geometry">
            <mxPoint x="230" y="384" as="sourcePoint" />
            <mxPoint x="391" y="210" as="targetPoint" />
          </mxGeometry>
        </mxCell>
        <mxCell id="eSEK_fv8UlKxiPN-UXVq-4" style="rounded=0;orthogonalLoop=1;jettySize=auto;html=1;exitX=0.5;exitY=0.5;exitDx=0;exitDy=0;exitPerimeter=0;" parent="1" source="eSEK_fv8UlKxiPN-UXVq-1" target="OjE6QcOV1WnEATgF1ANK-7" edge="1">
          <mxGeometry relative="1" as="geometry">
            <mxPoint x="360" y="394" as="sourcePoint" />
            <mxPoint x="521" y="220" as="targetPoint" />
          </mxGeometry>
        </mxCell>
        <mxCell id="eSEK_fv8UlKxiPN-UXVq-5" style="rounded=0;orthogonalLoop=1;jettySize=auto;html=1;exitX=0.5;exitY=0.5;exitDx=0;exitDy=0;exitPerimeter=0;" parent="1" source="eSEK_fv8UlKxiPN-UXVq-1" target="OjE6QcOV1WnEATgF1ANK-8" edge="1">
          <mxGeometry relative="1" as="geometry">
            <mxPoint x="250" y="474" as="sourcePoint" />
            <mxPoint x="411" y="300" as="targetPoint" />
          </mxGeometry>
        </mxCell>
        <mxCell id="iBG5IQZbzGf9Gm8H_M3j-1" value="Добавлять новых пользователей" style="ellipse;whiteSpace=wrap;html=1;" vertex="1" parent="1">
          <mxGeometry x="310" y="80" width="90" height="60" as="geometry" />
        </mxCell>
      </root>
    </mxGraphModel>
  </diagram>
  <diagram id="nulfJEoBxDZEjgwIBctz" name="IDEF1x">
    <mxGraphModel dx="1639" dy="891" grid="1" gridSize="10" guides="1" tooltips="1" connect="1" arrows="1" fold="1" page="1" pageScale="1" pageWidth="827" pageHeight="1169" math="0" shadow="0">
      <root>
        <mxCell id="0" />
        <mxCell id="1" parent="0" />
        <mxCell id="a2riUlZ0TRHOLf6AgiyH-6" value="tasks" style="swimlane;childLayout=stackLayout;horizontal=1;startSize=40;horizontalStack=0;rounded=1;fontSize=14;fontStyle=0;strokeWidth=2;resizeParent=0;resizeLast=1;shadow=0;dashed=0;align=center;arcSize=4;whiteSpace=wrap;html=1;labelBackgroundColor=default;strokeColor=default;gradientColor=none;swimlaneFillColor=default;" parent="1" vertex="1">
          <mxGeometry x="80" y="788" width="160" height="210" as="geometry" />
        </mxCell>
        <mxCell id="a2riUlZ0TRHOLf6AgiyH-32" style="edgeStyle=orthogonalEdgeStyle;rounded=0;orthogonalLoop=1;jettySize=auto;html=1;endArrow=ERone;endFill=0;startArrow=ERmany;startFill=0;fillColor=#647687;strokeColor=light-dark(#939393, #a9b8c7);entryX=-0.002;entryY=0.078;entryDx=0;entryDy=0;entryPerimeter=0;" parent="a2riUlZ0TRHOLf6AgiyH-6" target="a2riUlZ0TRHOLf6AgiyH-27" edge="1">
          <mxGeometry relative="1" as="geometry">
            <mxPoint x="420" y="-126" as="targetPoint" />
            <mxPoint x="161" y="96" as="sourcePoint" />
            <Array as="points">
              <mxPoint x="410" y="96" />
              <mxPoint x="410" y="-126" />
            </Array>
          </mxGeometry>
        </mxCell>
        <mxCell id="a2riUlZ0TRHOLf6AgiyH-7" value="taskid&lt;br&gt;title&lt;br&gt;description&lt;br&gt;creatorid&lt;br&gt;createdat&lt;br&gt;isactive" style="align=left;strokeColor=none;fillColor=none;spacingLeft=4;spacingRight=4;fontSize=12;verticalAlign=top;resizable=0;rotatable=0;part=1;html=1;whiteSpace=wrap;labelBackgroundColor=none;labelBorderColor=none;" parent="a2riUlZ0TRHOLf6AgiyH-6" vertex="1">
          <mxGeometry y="40" width="160" height="170" as="geometry" />
        </mxCell>
        <mxCell id="a2riUlZ0TRHOLf6AgiyH-31" style="edgeStyle=orthogonalEdgeStyle;rounded=0;orthogonalLoop=1;jettySize=auto;html=1;endArrow=ERone;endFill=0;startArrow=ERmany;startFill=0;fillColor=#647687;strokeColor=light-dark(#939393, #a9b8c7);strokeWidth=1;endSize=6;exitX=1.009;exitY=0.621;exitDx=0;exitDy=0;exitPerimeter=0;entryX=0.001;entryY=0.076;entryDx=0;entryDy=0;entryPerimeter=0;" parent="a2riUlZ0TRHOLf6AgiyH-6" target="a2riUlZ0TRHOLf6AgiyH-27" edge="1">
          <mxGeometry relative="1" as="geometry">
            <mxPoint x="431.48" y="-122.36999999999989" as="targetPoint" />
            <mxPoint x="162.44" y="-108.00999999999999" as="sourcePoint" />
            <Array as="points">
              <mxPoint x="410" y="-108" />
              <mxPoint x="410" y="-126" />
              <mxPoint x="431" y="-126" />
            </Array>
          </mxGeometry>
        </mxCell>
        <mxCell id="a2riUlZ0TRHOLf6AgiyH-12" value="studymaterials" style="swimlane;childLayout=stackLayout;horizontal=1;startSize=40;horizontalStack=0;rounded=1;fontSize=14;fontStyle=0;strokeWidth=2;resizeParent=0;resizeLast=1;shadow=0;dashed=0;align=center;arcSize=4;whiteSpace=wrap;html=1;labelBackgroundColor=default;strokeColor=default;gradientColor=none;swimlaneFillColor=default;" parent="1" vertex="1">
          <mxGeometry x="80" y="520" width="160" height="230" as="geometry" />
        </mxCell>
        <mxCell id="a2riUlZ0TRHOLf6AgiyH-13" value="materialid&lt;br&gt;taskid&lt;br&gt;title&lt;br&gt;description&lt;br&gt;filename&lt;br&gt;filedata&lt;br&gt;filetype&lt;br&gt;uploadedby&lt;br&gt;uploadedat&lt;br&gt;isactive" style="align=left;strokeColor=none;fillColor=none;spacingLeft=4;spacingRight=4;fontSize=12;verticalAlign=top;resizable=0;rotatable=0;part=1;html=1;whiteSpace=wrap;labelBackgroundColor=none;labelBorderColor=none;" parent="a2riUlZ0TRHOLf6AgiyH-12" vertex="1">
          <mxGeometry y="40" width="160" height="190" as="geometry" />
        </mxCell>
        <mxCell id="a2riUlZ0TRHOLf6AgiyH-26" value="users" style="swimlane;childLayout=stackLayout;horizontal=1;startSize=40;horizontalStack=0;rounded=1;fontSize=14;fontStyle=0;strokeWidth=2;resizeParent=0;resizeLast=1;shadow=0;dashed=0;align=center;arcSize=4;whiteSpace=wrap;html=1;labelBackgroundColor=default;strokeColor=default;gradientColor=none;swimlaneFillColor=default;" parent="1" vertex="1">
          <mxGeometry x="511" y="607" width="160" height="230" as="geometry" />
        </mxCell>
        <mxCell id="a2riUlZ0TRHOLf6AgiyH-27" value="userid&lt;br&gt;username&lt;br&gt;password&lt;br&gt;fullname&lt;br&gt;role&lt;br&gt;createdat&lt;br&gt;lastlogin" style="align=left;strokeColor=none;fillColor=none;spacingLeft=4;spacingRight=4;fontSize=12;verticalAlign=top;resizable=0;rotatable=0;part=1;html=1;whiteSpace=wrap;labelBackgroundColor=none;labelBorderColor=none;" parent="a2riUlZ0TRHOLf6AgiyH-26" vertex="1">
          <mxGeometry y="40" width="160" height="190" as="geometry" />
        </mxCell>
        <mxCell id="a2riUlZ0TRHOLf6AgiyH-28" value="submissions" style="swimlane;childLayout=stackLayout;horizontal=1;startSize=40;horizontalStack=0;rounded=1;fontSize=14;fontStyle=0;strokeWidth=2;resizeParent=0;resizeLast=1;shadow=0;dashed=0;align=center;arcSize=4;whiteSpace=wrap;html=1;labelBackgroundColor=default;strokeColor=default;gradientColor=none;swimlaneFillColor=default;" parent="1" vertex="1">
          <mxGeometry x="753" y="488" width="160" height="230" as="geometry" />
        </mxCell>
        <mxCell id="a2riUlZ0TRHOLf6AgiyH-29" value="&lt;div&gt;submissionid&lt;/div&gt;&lt;div&gt;&lt;span style=&quot;background-color: transparent; color: light-dark(rgb(0, 0, 0), rgb(255, 255, 255));&quot;&gt;TaskId&lt;/span&gt;&lt;/div&gt;&lt;div&gt;StudentId&lt;/div&gt;&lt;div&gt;FileName&lt;/div&gt;&lt;div&gt;FileData&amp;nbsp;&lt;/div&gt;&lt;div&gt;&lt;span style=&quot;background-color: transparent; color: light-dark(rgb(0, 0, 0), rgb(255, 255, 255));&quot;&gt;SubmittedAt&lt;/span&gt;&lt;/div&gt;&lt;div&gt;Status&lt;/div&gt;&lt;div&gt;Feedback&lt;/div&gt;&lt;div&gt;ReviewerId&lt;/div&gt;&lt;div&gt;ReviewedAt&lt;/div&gt;" style="align=left;strokeColor=none;fillColor=none;spacingLeft=4;spacingRight=4;fontSize=12;verticalAlign=top;resizable=0;rotatable=0;part=1;html=1;whiteSpace=wrap;labelBackgroundColor=none;labelBorderColor=none;" parent="a2riUlZ0TRHOLf6AgiyH-28" vertex="1">
          <mxGeometry y="40" width="160" height="190" as="geometry" />
        </mxCell>
        <mxCell id="a2riUlZ0TRHOLf6AgiyH-35" style="edgeStyle=orthogonalEdgeStyle;rounded=0;orthogonalLoop=1;jettySize=auto;html=1;endArrow=ERone;endFill=0;startArrow=ERmany;startFill=0;fillColor=#647687;strokeColor=light-dark(#939393, #a9b8c7);entryX=1.006;entryY=0.059;entryDx=0;entryDy=0;entryPerimeter=0;exitX=-0.004;exitY=0.672;exitDx=0;exitDy=0;exitPerimeter=0;" parent="1" source="a2riUlZ0TRHOLf6AgiyH-29" target="a2riUlZ0TRHOLf6AgiyH-27" edge="1">
          <mxGeometry relative="1" as="geometry">
            <mxPoint x="680" y="650" as="targetPoint" />
            <mxPoint x="750" y="658" as="sourcePoint" />
            <Array as="points">
              <mxPoint x="720" y="658" />
            </Array>
          </mxGeometry>
        </mxCell>
        <mxCell id="a2riUlZ0TRHOLf6AgiyH-1" style="edgeStyle=orthogonalEdgeStyle;rounded=0;orthogonalLoop=1;jettySize=auto;html=1;endArrow=ERone;endFill=0;startArrow=ERmany;startFill=0;fillColor=#647687;strokeColor=light-dark(#939393, #a9b8c7);exitX=1.002;exitY=0.151;exitDx=0;exitDy=0;exitPerimeter=0;entryX=1.003;entryY=0.071;entryDx=0;entryDy=0;entryPerimeter=0;" parent="1" source="a2riUlZ0TRHOLf6AgiyH-13" target="a2riUlZ0TRHOLf6AgiyH-7" edge="1">
          <mxGeometry relative="1" as="geometry">
            <mxPoint x="260" y="840" as="targetPoint" />
            <mxPoint x="241" y="589" as="sourcePoint" />
            <Array as="points">
              <mxPoint x="340" y="589" />
              <mxPoint x="340" y="830" />
              <mxPoint x="270" y="830" />
              <mxPoint x="270" y="840" />
            </Array>
          </mxGeometry>
        </mxCell>
        <mxCell id="a2riUlZ0TRHOLf6AgiyH-38" style="edgeStyle=orthogonalEdgeStyle;rounded=0;orthogonalLoop=1;jettySize=auto;html=1;endArrow=ERone;endFill=0;startArrow=ERmany;startFill=0;fillColor=#647687;strokeColor=light-dark(#939393, #a9b8c7);exitX=-0.004;exitY=0.672;exitDx=0;exitDy=0;exitPerimeter=0;entryX=1.007;entryY=0.058;entryDx=0;entryDy=0;entryPerimeter=0;" parent="1" target="a2riUlZ0TRHOLf6AgiyH-27" edge="1">
          <mxGeometry relative="1" as="geometry">
            <mxPoint x="670" y="658" as="targetPoint" />
            <mxPoint x="752" y="571" as="sourcePoint" />
            <Array as="points">
              <mxPoint x="720" y="571" />
              <mxPoint x="720" y="658" />
            </Array>
          </mxGeometry>
        </mxCell>
        <mxCell id="a2riUlZ0TRHOLf6AgiyH-39" style="edgeStyle=orthogonalEdgeStyle;rounded=0;orthogonalLoop=1;jettySize=auto;html=1;endArrow=ERone;endFill=0;startArrow=ERmany;startFill=0;fillColor=#647687;strokeColor=light-dark(#939393, #a9b8c7);exitX=1.001;exitY=0.147;exitDx=0;exitDy=0;exitPerimeter=0;entryX=1.003;entryY=0.072;entryDx=0;entryDy=0;entryPerimeter=0;" parent="1" source="a2riUlZ0TRHOLf6AgiyH-29" target="a2riUlZ0TRHOLf6AgiyH-7" edge="1">
          <mxGeometry relative="1" as="geometry">
            <mxPoint x="250" y="840" as="targetPoint" />
            <mxPoint x="752" y="558" as="sourcePoint" />
            <Array as="points">
              <mxPoint x="930" y="556" />
              <mxPoint x="940" y="556" />
              <mxPoint x="940" y="850" />
              <mxPoint x="270" y="850" />
              <mxPoint x="270" y="840" />
            </Array>
          </mxGeometry>
        </mxCell>
      </root>
    </mxGraphModel>
  </diagram>
  <diagram id="drXnDTCDD77GiFl3LT1i" name="Диаграмма взаимодействия программ и программных модулей">
    <mxGraphModel dx="1764" dy="509" grid="1" gridSize="10" guides="1" tooltips="1" connect="1" arrows="1" fold="1" page="1" pageScale="1" pageWidth="827" pageHeight="1169" math="0" shadow="0">
      <root>
        <mxCell id="0" />
        <mxCell id="1" parent="0" />
        <mxCell id="R7x3V9F2UJpREtqk0vDg-1" value="Модуль внесения изменений в бд" style="rounded=0;whiteSpace=wrap;html=1;" parent="1" vertex="1">
          <mxGeometry x="80" y="580" width="120" height="60" as="geometry" />
        </mxCell>
        <mxCell id="R7x3V9F2UJpREtqk0vDg-3" style="edgeStyle=orthogonalEdgeStyle;rounded=0;orthogonalLoop=1;jettySize=auto;html=1;entryX=0.5;entryY=1;entryDx=0;entryDy=0;" parent="1" source="R7x3V9F2UJpREtqk0vDg-6" target="R7x3V9F2UJpREtqk0vDg-10" edge="1">
          <mxGeometry relative="1" as="geometry" />
        </mxCell>
        <mxCell id="R7x3V9F2UJpREtqk0vDg-4" style="edgeStyle=orthogonalEdgeStyle;rounded=0;orthogonalLoop=1;jettySize=auto;html=1;" parent="1" source="R7x3V9F2UJpREtqk0vDg-10" target="R7x3V9F2UJpREtqk0vDg-8" edge="1">
          <mxGeometry relative="1" as="geometry">
            <Array as="points">
              <mxPoint x="580" y="490" />
            </Array>
          </mxGeometry>
        </mxCell>
        <mxCell id="R7x3V9F2UJpREtqk0vDg-6" value="Модуль студентов" style="rounded=0;whiteSpace=wrap;html=1;" parent="1" vertex="1">
          <mxGeometry x="240" y="580" width="120" height="60" as="geometry" />
        </mxCell>
        <mxCell id="R7x3V9F2UJpREtqk0vDg-8" value="Модуль загрузки файлов" style="rounded=0;whiteSpace=wrap;html=1;" parent="1" vertex="1">
          <mxGeometry x="520" y="580" width="120" height="60" as="geometry" />
        </mxCell>
        <mxCell id="R7x3V9F2UJpREtqk0vDg-30" style="edgeStyle=orthogonalEdgeStyle;rounded=0;orthogonalLoop=1;jettySize=auto;html=1;" parent="1" source="R7x3V9F2UJpREtqk0vDg-10" target="R7x3V9F2UJpREtqk0vDg-29" edge="1">
          <mxGeometry relative="1" as="geometry" />
        </mxCell>
        <mxCell id="R7x3V9F2UJpREtqk0vDg-10" value="Модуль просмотра файлов" style="rounded=0;whiteSpace=wrap;html=1;" parent="1" vertex="1">
          <mxGeometry x="400" y="460" width="120" height="60" as="geometry" />
        </mxCell>
        <mxCell id="R7x3V9F2UJpREtqk0vDg-11" value="Модуль Архивации/Разархивации" style="rounded=0;whiteSpace=wrap;html=1;" parent="1" vertex="1">
          <mxGeometry x="520" y="340" width="120" height="60" as="geometry" />
        </mxCell>
        <mxCell id="R7x3V9F2UJpREtqk0vDg-12" style="edgeStyle=orthogonalEdgeStyle;rounded=0;orthogonalLoop=1;jettySize=auto;html=1;" parent="1" source="R7x3V9F2UJpREtqk0vDg-19" target="R7x3V9F2UJpREtqk0vDg-13" edge="1">
          <mxGeometry relative="1" as="geometry" />
        </mxCell>
        <mxCell id="R7x3V9F2UJpREtqk0vDg-20" style="edgeStyle=orthogonalEdgeStyle;rounded=0;orthogonalLoop=1;jettySize=auto;html=1;" parent="1" source="R7x3V9F2UJpREtqk0vDg-13" target="R7x3V9F2UJpREtqk0vDg-10" edge="1">
          <mxGeometry relative="1" as="geometry" />
        </mxCell>
        <mxCell id="R7x3V9F2UJpREtqk0vDg-22" style="edgeStyle=orthogonalEdgeStyle;rounded=0;orthogonalLoop=1;jettySize=auto;html=1;" parent="1" source="R7x3V9F2UJpREtqk0vDg-10" target="R7x3V9F2UJpREtqk0vDg-11" edge="1">
          <mxGeometry relative="1" as="geometry">
            <Array as="points">
              <mxPoint x="580" y="490" />
            </Array>
          </mxGeometry>
        </mxCell>
        <mxCell id="R7x3V9F2UJpREtqk0vDg-23" style="edgeStyle=orthogonalEdgeStyle;rounded=0;orthogonalLoop=1;jettySize=auto;html=1;" parent="1" source="R7x3V9F2UJpREtqk0vDg-25" target="R7x3V9F2UJpREtqk0vDg-1" edge="1">
          <mxGeometry relative="1" as="geometry" />
        </mxCell>
        <mxCell id="R7x3V9F2UJpREtqk0vDg-27" style="edgeStyle=orthogonalEdgeStyle;rounded=0;orthogonalLoop=1;jettySize=auto;html=1;" parent="1" source="R7x3V9F2UJpREtqk0vDg-25" target="R7x3V9F2UJpREtqk0vDg-24" edge="1">
          <mxGeometry relative="1" as="geometry" />
        </mxCell>
        <mxCell id="R7x3V9F2UJpREtqk0vDg-28" style="edgeStyle=orthogonalEdgeStyle;rounded=0;orthogonalLoop=1;jettySize=auto;html=1;" parent="1" source="R7x3V9F2UJpREtqk0vDg-13" target="R7x3V9F2UJpREtqk0vDg-25" edge="1">
          <mxGeometry relative="1" as="geometry" />
        </mxCell>
        <mxCell id="R7x3V9F2UJpREtqk0vDg-13" value="Модуль преподавателей" style="rounded=0;whiteSpace=wrap;html=1;" parent="1" vertex="1">
          <mxGeometry x="240" y="340" width="120" height="60" as="geometry" />
        </mxCell>
        <mxCell id="R7x3V9F2UJpREtqk0vDg-15" style="edgeStyle=orthogonalEdgeStyle;rounded=0;orthogonalLoop=1;jettySize=auto;html=1;entryX=0.5;entryY=0;entryDx=0;entryDy=0;" parent="1" source="R7x3V9F2UJpREtqk0vDg-19" target="R7x3V9F2UJpREtqk0vDg-6" edge="1">
          <mxGeometry relative="1" as="geometry" />
        </mxCell>
        <mxCell id="R7x3V9F2UJpREtqk0vDg-19" value="Модуль Авторизации" style="rounded=0;whiteSpace=wrap;html=1;" parent="1" vertex="1">
          <mxGeometry x="240" y="460" width="120" height="60" as="geometry" />
        </mxCell>
        <mxCell id="R7x3V9F2UJpREtqk0vDg-24" value="Модуль проверки заданий" style="rounded=0;whiteSpace=wrap;html=1;" parent="1" vertex="1">
          <mxGeometry x="-80" y="460" width="120" height="60" as="geometry" />
        </mxCell>
        <mxCell id="R7x3V9F2UJpREtqk0vDg-25" value="Модуль просмотра списка студентов" style="rounded=0;whiteSpace=wrap;html=1;" parent="1" vertex="1">
          <mxGeometry x="80" y="460" width="120" height="60" as="geometry" />
        </mxCell>
        <mxCell id="R7x3V9F2UJpREtqk0vDg-29" value="Модуль отправки файлов" style="rounded=0;whiteSpace=wrap;html=1;" parent="1" vertex="1">
          <mxGeometry x="670" y="460" width="120" height="60" as="geometry" />
        </mxCell>
      </root>
    </mxGraphModel>
  </diagram>
  <diagram id="qBBn2Gh7ify0OE35f7kO" name="архитектура программного комплекса">
    <mxGraphModel dx="1130" dy="614" grid="1" gridSize="10" guides="1" tooltips="1" connect="1" arrows="1" fold="1" page="1" pageScale="1" pageWidth="3300" pageHeight="4681" math="0" shadow="0">
      <root>
        <mxCell id="0" />
        <mxCell id="1" parent="0" />
        <mxCell id="JIsa9EKGVEIsXooY3HZE-1" value="" style="rounded=0;whiteSpace=wrap;html=1;" vertex="1" parent="1">
          <mxGeometry x="130" y="120" width="590" height="210" as="geometry" />
        </mxCell>
        <mxCell id="JIsa9EKGVEIsXooY3HZE-2" value="&lt;br&gt;База данных&lt;br&gt;(PostgreSQL)" style="strokeWidth=2;html=1;shape=mxgraph.flowchart.database;whiteSpace=wrap;" vertex="1" parent="1">
          <mxGeometry x="375" y="390" width="130" height="70" as="geometry" />
        </mxCell>
        <mxCell id="JIsa9EKGVEIsXooY3HZE-4" value="Клиентский модуль" style="text;html=1;align=center;verticalAlign=middle;whiteSpace=wrap;rounded=0;" vertex="1" parent="1">
          <mxGeometry x="370" y="130" width="130" height="35" as="geometry" />
        </mxCell>
        <mxCell id="JIsa9EKGVEIsXooY3HZE-8" value="Модуль загрузки данных в бд" style="rounded=0;whiteSpace=wrap;html=1;" vertex="1" parent="1">
          <mxGeometry x="142" y="260" width="130" height="50" as="geometry" />
        </mxCell>
        <mxCell id="JIsa9EKGVEIsXooY3HZE-10" value="Модуль архивации/разархивации" style="rounded=0;whiteSpace=wrap;html=1;" vertex="1" parent="1">
          <mxGeometry x="290" y="190" width="130" height="50" as="geometry" />
        </mxCell>
        <mxCell id="JIsa9EKGVEIsXooY3HZE-11" style="edgeStyle=orthogonalEdgeStyle;rounded=0;orthogonalLoop=1;jettySize=auto;html=1;exitX=0.5;exitY=1;exitDx=0;exitDy=0;" edge="1" parent="1" source="JIsa9EKGVEIsXooY3HZE-10" target="JIsa9EKGVEIsXooY3HZE-10">
          <mxGeometry relative="1" as="geometry" />
        </mxCell>
        <mxCell id="JIsa9EKGVEIsXooY3HZE-15" value="Модуль проверки заданий" style="rounded=0;whiteSpace=wrap;html=1;" vertex="1" parent="1">
          <mxGeometry x="436" y="190" width="130" height="50" as="geometry" />
        </mxCell>
        <mxCell id="JIsa9EKGVEIsXooY3HZE-16" value="Модуль добавления новых пользователей,заданий.материалов" style="rounded=0;whiteSpace=wrap;html=1;" vertex="1" parent="1">
          <mxGeometry x="290" y="260" width="276" height="50" as="geometry" />
        </mxCell>
        <mxCell id="JIsa9EKGVEIsXooY3HZE-18" value="Модуль просмотра локальных файлов" style="rounded=0;whiteSpace=wrap;html=1;" vertex="1" parent="1">
          <mxGeometry x="580" y="190" width="130" height="50" as="geometry" />
        </mxCell>
        <mxCell id="JIsa9EKGVEIsXooY3HZE-23" value="Авторизация" style="rounded=0;whiteSpace=wrap;html=1;" vertex="1" parent="1">
          <mxGeometry x="142" y="190" width="130" height="50" as="geometry" />
        </mxCell>
        <mxCell id="JIsa9EKGVEIsXooY3HZE-37" value="" style="endArrow=classic;html=1;rounded=0;exitX=0.169;exitY=1.001;exitDx=0;exitDy=0;exitPerimeter=0;entryX=0.307;entryY=0.004;entryDx=0;entryDy=0;entryPerimeter=0;" edge="1" parent="1" target="JIsa9EKGVEIsXooY3HZE-2">
          <mxGeometry width="50" height="50" relative="1" as="geometry">
            <mxPoint x="414.42999999999984" y="330.21000000000004" as="sourcePoint" />
            <mxPoint x="415" y="400" as="targetPoint" />
          </mxGeometry>
        </mxCell>
        <mxCell id="JIsa9EKGVEIsXooY3HZE-38" value="" style="endArrow=classic;html=1;rounded=0;exitX=0.61;exitY=-0.011;exitDx=0;exitDy=0;exitPerimeter=0;entryX=0.254;entryY=1;entryDx=0;entryDy=0;entryPerimeter=0;" edge="1" parent="1" source="JIsa9EKGVEIsXooY3HZE-2">
          <mxGeometry width="50" height="50" relative="1" as="geometry">
            <mxPoint x="435" y="340" as="sourcePoint" />
            <mxPoint x="454.3800000000001" y="330" as="targetPoint" />
          </mxGeometry>
        </mxCell>
        <mxCell id="JIsa9EKGVEIsXooY3HZE-43" value="Модуль загрузки данных из бд" style="rounded=0;whiteSpace=wrap;html=1;" vertex="1" parent="1">
          <mxGeometry x="580" y="260" width="130" height="50" as="geometry" />
        </mxCell>
      </root>
    </mxGraphModel>
  </diagram>
  <diagram id="vcDDEzIMX_p4e6_raLla" name="DFD">
    <mxGraphModel dx="1366" dy="743" grid="1" gridSize="10" guides="1" tooltips="1" connect="1" arrows="1" fold="1" page="1" pageScale="1" pageWidth="3300" pageHeight="4681" math="0" shadow="0">
      <root>
        <mxCell id="0" />
        <mxCell id="1" parent="0" />
        <mxCell id="UB37dbeBUYY7283RL6KF-1" style="edgeStyle=orthogonalEdgeStyle;rounded=0;orthogonalLoop=1;jettySize=auto;html=1;entryX=0;entryY=0.5;entryDx=0;entryDy=0;" edge="1" parent="1" source="UB37dbeBUYY7283RL6KF-5" target="UB37dbeBUYY7283RL6KF-7">
          <mxGeometry relative="1" as="geometry" />
        </mxCell>
        <mxCell id="UB37dbeBUYY7283RL6KF-2" style="edgeStyle=orthogonalEdgeStyle;rounded=0;orthogonalLoop=1;jettySize=auto;html=1;entryX=0;entryY=0.5;entryDx=0;entryDy=0;" edge="1" parent="1" source="UB37dbeBUYY7283RL6KF-5" target="UB37dbeBUYY7283RL6KF-8">
          <mxGeometry relative="1" as="geometry" />
        </mxCell>
        <mxCell id="UB37dbeBUYY7283RL6KF-3" style="edgeStyle=orthogonalEdgeStyle;rounded=0;orthogonalLoop=1;jettySize=auto;html=1;entryX=0;entryY=0.5;entryDx=0;entryDy=0;" edge="1" parent="1" source="UB37dbeBUYY7283RL6KF-5" target="UB37dbeBUYY7283RL6KF-10">
          <mxGeometry relative="1" as="geometry" />
        </mxCell>
        <mxCell id="UB37dbeBUYY7283RL6KF-4" style="edgeStyle=orthogonalEdgeStyle;rounded=0;orthogonalLoop=1;jettySize=auto;html=1;entryX=0;entryY=0.5;entryDx=0;entryDy=0;" edge="1" parent="1" source="UB37dbeBUYY7283RL6KF-5" target="UB37dbeBUYY7283RL6KF-11">
          <mxGeometry relative="1" as="geometry" />
        </mxCell>
        <mxCell id="UB37dbeBUYY7283RL6KF-5" value="Администратор" style="rounded=0;whiteSpace=wrap;html=1;" vertex="1" parent="1">
          <mxGeometry x="220" y="80" width="120" height="60" as="geometry" />
        </mxCell>
        <mxCell id="UB37dbeBUYY7283RL6KF-6" value="1" style="text;html=1;align=center;verticalAlign=middle;whiteSpace=wrap;rounded=0;" vertex="1" parent="1">
          <mxGeometry x="220" y="80" width="20" height="20" as="geometry" />
        </mxCell>
        <mxCell id="UB37dbeBUYY7283RL6KF-7" value="Управление пользователями" style="rounded=1;whiteSpace=wrap;html=1;" vertex="1" parent="1">
          <mxGeometry x="450" y="80" width="120" height="60" as="geometry" />
        </mxCell>
        <mxCell id="UB37dbeBUYY7283RL6KF-8" value="Управление заданиями" style="rounded=1;whiteSpace=wrap;html=1;" vertex="1" parent="1">
          <mxGeometry x="450" y="270" width="120" height="60" as="geometry" />
        </mxCell>
        <mxCell id="UB37dbeBUYY7283RL6KF-10" value="Управление материалами" style="rounded=1;whiteSpace=wrap;html=1;" vertex="1" parent="1">
          <mxGeometry x="450" y="460" width="120" height="60" as="geometry" />
        </mxCell>
        <mxCell id="UB37dbeBUYY7283RL6KF-11" value="Управление ответами пользователей" style="rounded=1;whiteSpace=wrap;html=1;" vertex="1" parent="1">
          <mxGeometry x="450" y="650" width="120" height="60" as="geometry" />
        </mxCell>
        <mxCell id="UB37dbeBUYY7283RL6KF-12" value="" style="group" vertex="1" connectable="0" parent="1">
          <mxGeometry x="480" y="190" width="140" height="40" as="geometry" />
        </mxCell>
        <mxCell id="UB37dbeBUYY7283RL6KF-13" style="edgeStyle=orthogonalEdgeStyle;rounded=0;orthogonalLoop=1;jettySize=auto;html=1;" edge="1" parent="UB37dbeBUYY7283RL6KF-12" source="UB37dbeBUYY7283RL6KF-15">
          <mxGeometry relative="1" as="geometry">
            <mxPoint x="260" y="20" as="targetPoint" />
          </mxGeometry>
        </mxCell>
        <mxCell id="UB37dbeBUYY7283RL6KF-14" value="Пользователи" style="edgeLabel;html=1;align=center;verticalAlign=middle;resizable=0;points=[];" vertex="1" connectable="0" parent="UB37dbeBUYY7283RL6KF-13">
          <mxGeometry x="-0.1773" relative="1" as="geometry">
            <mxPoint x="6" y="-12" as="offset" />
          </mxGeometry>
        </mxCell>
        <mxCell id="UB37dbeBUYY7283RL6KF-15" value="&lt;span style=&quot;white-space: pre;&quot;&gt;&#x9;&lt;/span&gt;&lt;span style=&quot;white-space: pre;&quot;&gt;&#x9;&lt;/span&gt;База данных" style="strokeWidth=2;html=1;shape=mxgraph.flowchart.annotation_1;align=left;pointerEvents=1;" vertex="1" parent="UB37dbeBUYY7283RL6KF-12">
          <mxGeometry width="140" height="40" as="geometry" />
        </mxCell>
        <mxCell id="UB37dbeBUYY7283RL6KF-16" value="2" style="rounded=0;whiteSpace=wrap;html=1;" vertex="1" parent="UB37dbeBUYY7283RL6KF-12">
          <mxGeometry width="20" height="40" as="geometry" />
        </mxCell>
        <mxCell id="UB37dbeBUYY7283RL6KF-17" value="" style="endArrow=classic;html=1;rounded=0;exitX=0.357;exitY=-0.023;exitDx=0;exitDy=0;exitPerimeter=0;entryX=0.666;entryY=1.002;entryDx=0;entryDy=0;entryPerimeter=0;" edge="1" parent="1" source="UB37dbeBUYY7283RL6KF-15" target="UB37dbeBUYY7283RL6KF-7">
          <mxGeometry width="50" height="50" relative="1" as="geometry">
            <mxPoint x="500" y="280" as="sourcePoint" />
            <mxPoint x="530" y="150" as="targetPoint" />
          </mxGeometry>
        </mxCell>
        <mxCell id="UB37dbeBUYY7283RL6KF-18" value="Список&lt;br&gt;пользователей" style="text;html=1;align=center;verticalAlign=middle;whiteSpace=wrap;rounded=0;" vertex="1" parent="1">
          <mxGeometry x="540" y="150" width="90" height="30" as="geometry" />
        </mxCell>
        <mxCell id="UB37dbeBUYY7283RL6KF-19" value="" style="group" vertex="1" connectable="0" parent="1">
          <mxGeometry x="480" y="379" width="140" height="40" as="geometry" />
        </mxCell>
        <mxCell id="UB37dbeBUYY7283RL6KF-20" style="edgeStyle=orthogonalEdgeStyle;rounded=0;orthogonalLoop=1;jettySize=auto;html=1;" edge="1" parent="UB37dbeBUYY7283RL6KF-19" source="UB37dbeBUYY7283RL6KF-22">
          <mxGeometry relative="1" as="geometry">
            <mxPoint x="260" y="20" as="targetPoint" />
          </mxGeometry>
        </mxCell>
        <mxCell id="UB37dbeBUYY7283RL6KF-21" value="задания" style="edgeLabel;html=1;align=center;verticalAlign=middle;resizable=0;points=[];" vertex="1" connectable="0" parent="UB37dbeBUYY7283RL6KF-20">
          <mxGeometry x="-0.1773" relative="1" as="geometry">
            <mxPoint x="6" y="-12" as="offset" />
          </mxGeometry>
        </mxCell>
        <mxCell id="UB37dbeBUYY7283RL6KF-22" value="&lt;span style=&quot;white-space: pre;&quot;&gt;&#x9;&lt;/span&gt;&lt;span style=&quot;white-space: pre;&quot;&gt;&#x9;&lt;/span&gt;База данных" style="strokeWidth=2;html=1;shape=mxgraph.flowchart.annotation_1;align=left;pointerEvents=1;" vertex="1" parent="UB37dbeBUYY7283RL6KF-19">
          <mxGeometry width="140" height="40" as="geometry" />
        </mxCell>
        <mxCell id="UB37dbeBUYY7283RL6KF-23" value="2" style="rounded=0;whiteSpace=wrap;html=1;" vertex="1" parent="UB37dbeBUYY7283RL6KF-19">
          <mxGeometry width="20" height="40" as="geometry" />
        </mxCell>
        <mxCell id="UB37dbeBUYY7283RL6KF-24" value="Список заданий" style="text;html=1;align=center;verticalAlign=middle;whiteSpace=wrap;rounded=0;" vertex="1" parent="1">
          <mxGeometry x="540" y="339" width="90" height="30" as="geometry" />
        </mxCell>
        <mxCell id="UB37dbeBUYY7283RL6KF-25" value="" style="group" vertex="1" connectable="0" parent="1">
          <mxGeometry x="480" y="570" width="140" height="40" as="geometry" />
        </mxCell>
        <mxCell id="UB37dbeBUYY7283RL6KF-26" style="edgeStyle=orthogonalEdgeStyle;rounded=0;orthogonalLoop=1;jettySize=auto;html=1;" edge="1" parent="UB37dbeBUYY7283RL6KF-25" source="UB37dbeBUYY7283RL6KF-28">
          <mxGeometry relative="1" as="geometry">
            <mxPoint x="260" y="20" as="targetPoint" />
          </mxGeometry>
        </mxCell>
        <mxCell id="UB37dbeBUYY7283RL6KF-27" value="Материалы" style="edgeLabel;html=1;align=center;verticalAlign=middle;resizable=0;points=[];" vertex="1" connectable="0" parent="UB37dbeBUYY7283RL6KF-26">
          <mxGeometry x="-0.1773" relative="1" as="geometry">
            <mxPoint x="6" y="-12" as="offset" />
          </mxGeometry>
        </mxCell>
        <mxCell id="UB37dbeBUYY7283RL6KF-28" value="&lt;span style=&quot;white-space: pre;&quot;&gt;&#x9;&lt;/span&gt;&lt;span style=&quot;white-space: pre;&quot;&gt;&#x9;&lt;/span&gt;База данных" style="strokeWidth=2;html=1;shape=mxgraph.flowchart.annotation_1;align=left;pointerEvents=1;" vertex="1" parent="UB37dbeBUYY7283RL6KF-25">
          <mxGeometry width="140" height="40" as="geometry" />
        </mxCell>
        <mxCell id="UB37dbeBUYY7283RL6KF-29" value="2" style="rounded=0;whiteSpace=wrap;html=1;" vertex="1" parent="UB37dbeBUYY7283RL6KF-25">
          <mxGeometry width="20" height="40" as="geometry" />
        </mxCell>
        <mxCell id="UB37dbeBUYY7283RL6KF-30" value="Список&lt;br&gt;модулей" style="text;html=1;align=center;verticalAlign=middle;whiteSpace=wrap;rounded=0;" vertex="1" parent="1">
          <mxGeometry x="540" y="530" width="90" height="30" as="geometry" />
        </mxCell>
        <mxCell id="UB37dbeBUYY7283RL6KF-31" value="" style="group" vertex="1" connectable="0" parent="1">
          <mxGeometry x="493.5" y="760" width="140" height="40" as="geometry" />
        </mxCell>
        <mxCell id="UB37dbeBUYY7283RL6KF-32" style="edgeStyle=orthogonalEdgeStyle;rounded=0;orthogonalLoop=1;jettySize=auto;html=1;" edge="1" parent="UB37dbeBUYY7283RL6KF-31" source="UB37dbeBUYY7283RL6KF-34">
          <mxGeometry relative="1" as="geometry">
            <mxPoint x="260" y="20" as="targetPoint" />
          </mxGeometry>
        </mxCell>
        <mxCell id="UB37dbeBUYY7283RL6KF-33" value="Работы пользователей" style="edgeLabel;html=1;align=center;verticalAlign=middle;resizable=0;points=[];" vertex="1" connectable="0" parent="UB37dbeBUYY7283RL6KF-32">
          <mxGeometry x="-0.1773" relative="1" as="geometry">
            <mxPoint x="17" y="-12" as="offset" />
          </mxGeometry>
        </mxCell>
        <mxCell id="UB37dbeBUYY7283RL6KF-34" value="&lt;span style=&quot;white-space: pre;&quot;&gt;&#x9;&lt;/span&gt;&lt;span style=&quot;white-space: pre;&quot;&gt;&#x9;&lt;/span&gt;База данных" style="strokeWidth=2;html=1;shape=mxgraph.flowchart.annotation_1;align=left;pointerEvents=1;" vertex="1" parent="UB37dbeBUYY7283RL6KF-31">
          <mxGeometry width="140" height="40" as="geometry" />
        </mxCell>
        <mxCell id="UB37dbeBUYY7283RL6KF-35" value="2" style="rounded=0;whiteSpace=wrap;html=1;" vertex="1" parent="UB37dbeBUYY7283RL6KF-31">
          <mxGeometry width="20" height="40" as="geometry" />
        </mxCell>
        <mxCell id="UB37dbeBUYY7283RL6KF-36" value="работы пользователей" style="text;html=1;align=center;verticalAlign=middle;whiteSpace=wrap;rounded=0;" vertex="1" parent="1">
          <mxGeometry x="553.5" y="720" width="90" height="30" as="geometry" />
        </mxCell>
        <mxCell id="UB37dbeBUYY7283RL6KF-37" value="" style="endArrow=classic;html=1;rounded=0;exitX=0.356;exitY=-0.045;exitDx=0;exitDy=0;exitPerimeter=0;entryX=0.668;entryY=1.005;entryDx=0;entryDy=0;entryPerimeter=0;" edge="1" parent="1" source="UB37dbeBUYY7283RL6KF-28" target="UB37dbeBUYY7283RL6KF-10">
          <mxGeometry width="50" height="50" relative="1" as="geometry">
            <mxPoint x="520" y="560" as="sourcePoint" />
            <mxPoint x="570" y="510" as="targetPoint" />
          </mxGeometry>
        </mxCell>
        <mxCell id="UB37dbeBUYY7283RL6KF-38" value="" style="endArrow=classic;html=1;rounded=0;exitX=0.356;exitY=-0.045;exitDx=0;exitDy=0;exitPerimeter=0;entryX=0.668;entryY=1.005;entryDx=0;entryDy=0;entryPerimeter=0;" edge="1" parent="1">
          <mxGeometry width="50" height="50" relative="1" as="geometry">
            <mxPoint x="530" y="379" as="sourcePoint" />
            <mxPoint x="530" y="331" as="targetPoint" />
          </mxGeometry>
        </mxCell>
        <mxCell id="UB37dbeBUYY7283RL6KF-39" value="" style="endArrow=classic;html=1;rounded=0;exitX=0.356;exitY=-0.045;exitDx=0;exitDy=0;exitPerimeter=0;entryX=0.668;entryY=1.005;entryDx=0;entryDy=0;entryPerimeter=0;" edge="1" parent="1">
          <mxGeometry width="50" height="50" relative="1" as="geometry">
            <mxPoint x="530" y="759" as="sourcePoint" />
            <mxPoint x="530" y="711" as="targetPoint" />
          </mxGeometry>
        </mxCell>
        <mxCell id="UB37dbeBUYY7283RL6KF-41" value="2" style="text;html=1;align=center;verticalAlign=middle;whiteSpace=wrap;rounded=0;" vertex="1" parent="1">
          <mxGeometry x="450" y="80" width="20" height="20" as="geometry" />
        </mxCell>
        <mxCell id="UB37dbeBUYY7283RL6KF-42" value="2" style="text;html=1;align=center;verticalAlign=middle;whiteSpace=wrap;rounded=0;" vertex="1" parent="1">
          <mxGeometry x="450" y="270" width="20" height="20" as="geometry" />
        </mxCell>
        <mxCell id="UB37dbeBUYY7283RL6KF-43" value="2" style="text;html=1;align=center;verticalAlign=middle;whiteSpace=wrap;rounded=0;" vertex="1" parent="1">
          <mxGeometry x="450" y="460" width="20" height="20" as="geometry" />
        </mxCell>
        <mxCell id="UB37dbeBUYY7283RL6KF-44" value="2" style="text;html=1;align=center;verticalAlign=middle;whiteSpace=wrap;rounded=0;" vertex="1" parent="1">
          <mxGeometry x="450" y="650" width="20" height="20" as="geometry" />
        </mxCell>
      </root>
    </mxGraphModel>
  </diagram>
  <diagram id="oBxlkhttlTKMR955aYXr" name="IDEF3">
    <mxGraphModel dx="1366" dy="743" grid="1" gridSize="10" guides="1" tooltips="1" connect="1" arrows="1" fold="1" page="1" pageScale="1" pageWidth="3300" pageHeight="4681" math="0" shadow="0">
      <root>
        <mxCell id="0" />
        <mxCell id="1" parent="0" />
        <mxCell id="YU8YC3hWGxVw7VaBo6HY-1" value="" style="group" vertex="1" connectable="0" parent="1">
          <mxGeometry x="40" y="200" width="160" height="120" as="geometry" />
        </mxCell>
        <mxCell id="YU8YC3hWGxVw7VaBo6HY-2" value="Проверка авторизации пользователя&amp;nbsp;" style="rounded=0;whiteSpace=wrap;html=1;labelPosition=center;verticalLabelPosition=middle;align=center;verticalAlign=middle;" vertex="1" parent="YU8YC3hWGxVw7VaBo6HY-1">
          <mxGeometry width="160" height="120" as="geometry" />
        </mxCell>
        <mxCell id="YU8YC3hWGxVw7VaBo6HY-3" value="" style="rounded=0;whiteSpace=wrap;html=1;" vertex="1" parent="YU8YC3hWGxVw7VaBo6HY-1">
          <mxGeometry y="85.71428571428571" width="160" height="34.285714285714285" as="geometry" />
        </mxCell>
        <mxCell id="YU8YC3hWGxVw7VaBo6HY-4" value="1.1" style="rounded=0;whiteSpace=wrap;html=1;align=left;" vertex="1" parent="YU8YC3hWGxVw7VaBo6HY-1">
          <mxGeometry y="85.71428571428571" width="80" height="34.285714285714285" as="geometry" />
        </mxCell>
        <mxCell id="YU8YC3hWGxVw7VaBo6HY-5" style="edgeStyle=orthogonalEdgeStyle;rounded=0;orthogonalLoop=1;jettySize=auto;html=1;entryX=0;entryY=0.5;entryDx=0;entryDy=0;" edge="1" parent="1" source="YU8YC3hWGxVw7VaBo6HY-2" target="YU8YC3hWGxVw7VaBo6HY-7">
          <mxGeometry relative="1" as="geometry">
            <mxPoint x="260" y="260" as="targetPoint" />
          </mxGeometry>
        </mxCell>
        <mxCell id="YU8YC3hWGxVw7VaBo6HY-6" value="" style="group" vertex="1" connectable="0" parent="1">
          <mxGeometry x="260" y="200" width="160" height="120" as="geometry" />
        </mxCell>
        <mxCell id="YU8YC3hWGxVw7VaBo6HY-7" value="Загрузка ID, Role пользователя" style="rounded=0;whiteSpace=wrap;html=1;labelPosition=center;verticalLabelPosition=middle;align=center;verticalAlign=middle;" vertex="1" parent="YU8YC3hWGxVw7VaBo6HY-6">
          <mxGeometry width="160" height="120" as="geometry" />
        </mxCell>
        <mxCell id="YU8YC3hWGxVw7VaBo6HY-8" value="" style="rounded=0;whiteSpace=wrap;html=1;" vertex="1" parent="YU8YC3hWGxVw7VaBo6HY-6">
          <mxGeometry y="85.71428571428571" width="160" height="34.285714285714285" as="geometry" />
        </mxCell>
        <mxCell id="YU8YC3hWGxVw7VaBo6HY-9" value="1.2" style="rounded=0;whiteSpace=wrap;html=1;align=left;" vertex="1" parent="YU8YC3hWGxVw7VaBo6HY-6">
          <mxGeometry y="85.71428571428571" width="80" height="34.285714285714285" as="geometry" />
        </mxCell>
        <mxCell id="YU8YC3hWGxVw7VaBo6HY-10" value="" style="group" vertex="1" connectable="0" parent="1">
          <mxGeometry x="480" y="200" width="160" height="120" as="geometry" />
        </mxCell>
        <mxCell id="YU8YC3hWGxVw7VaBo6HY-11" value="Переход на главную страницу пользователя" style="rounded=0;whiteSpace=wrap;html=1;labelPosition=center;verticalLabelPosition=middle;align=center;verticalAlign=middle;" vertex="1" parent="YU8YC3hWGxVw7VaBo6HY-10">
          <mxGeometry width="160" height="120" as="geometry" />
        </mxCell>
        <mxCell id="YU8YC3hWGxVw7VaBo6HY-12" value="" style="rounded=0;whiteSpace=wrap;html=1;" vertex="1" parent="YU8YC3hWGxVw7VaBo6HY-10">
          <mxGeometry y="85.71428571428571" width="160" height="34.285714285714285" as="geometry" />
        </mxCell>
        <mxCell id="YU8YC3hWGxVw7VaBo6HY-13" value="1.3" style="rounded=0;whiteSpace=wrap;html=1;align=left;" vertex="1" parent="YU8YC3hWGxVw7VaBo6HY-10">
          <mxGeometry y="85.71428571428571" width="80" height="34.285714285714285" as="geometry" />
        </mxCell>
        <mxCell id="YU8YC3hWGxVw7VaBo6HY-14" value="" style="group" vertex="1" connectable="0" parent="1">
          <mxGeometry x="690" y="200" width="160" height="120" as="geometry" />
        </mxCell>
        <mxCell id="YU8YC3hWGxVw7VaBo6HY-15" value="Загрузка материалов из базы данных" style="rounded=0;whiteSpace=wrap;html=1;labelPosition=center;verticalLabelPosition=middle;align=center;verticalAlign=middle;" vertex="1" parent="YU8YC3hWGxVw7VaBo6HY-14">
          <mxGeometry width="160" height="120" as="geometry" />
        </mxCell>
        <mxCell id="YU8YC3hWGxVw7VaBo6HY-16" value="" style="rounded=0;whiteSpace=wrap;html=1;" vertex="1" parent="YU8YC3hWGxVw7VaBo6HY-14">
          <mxGeometry y="85.71428571428571" width="160" height="34.285714285714285" as="geometry" />
        </mxCell>
        <mxCell id="YU8YC3hWGxVw7VaBo6HY-17" value="1.4" style="rounded=0;whiteSpace=wrap;html=1;align=left;" vertex="1" parent="YU8YC3hWGxVw7VaBo6HY-14">
          <mxGeometry y="85.71428571428571" width="80" height="34.285714285714285" as="geometry" />
        </mxCell>
        <mxCell id="YU8YC3hWGxVw7VaBo6HY-22" style="edgeStyle=orthogonalEdgeStyle;rounded=0;orthogonalLoop=1;jettySize=auto;html=1;entryX=0;entryY=0.5;entryDx=0;entryDy=0;" edge="1" parent="1" source="YU8YC3hWGxVw7VaBo6HY-7" target="YU8YC3hWGxVw7VaBo6HY-11">
          <mxGeometry relative="1" as="geometry" />
        </mxCell>
        <mxCell id="YU8YC3hWGxVw7VaBo6HY-23" style="edgeStyle=orthogonalEdgeStyle;rounded=0;orthogonalLoop=1;jettySize=auto;html=1;entryX=0;entryY=0.5;entryDx=0;entryDy=0;" edge="1" parent="1" source="YU8YC3hWGxVw7VaBo6HY-11" target="YU8YC3hWGxVw7VaBo6HY-15">
          <mxGeometry relative="1" as="geometry" />
        </mxCell>
        <mxCell id="YU8YC3hWGxVw7VaBo6HY-25" style="edgeStyle=orthogonalEdgeStyle;rounded=0;orthogonalLoop=1;jettySize=auto;html=1;exitX=1;exitY=0.5;exitDx=0;exitDy=0;" edge="1" parent="1" source="YU8YC3hWGxVw7VaBo6HY-15" target="YU8YC3hWGxVw7VaBo6HY-35">
          <mxGeometry relative="1" as="geometry">
            <mxPoint x="1070" y="260" as="sourcePoint" />
            <mxPoint x="900" y="440" as="targetPoint" />
            <Array as="points">
              <mxPoint x="920" y="260" />
              <mxPoint x="920" y="440" />
            </Array>
          </mxGeometry>
        </mxCell>
        <mxCell id="YU8YC3hWGxVw7VaBo6HY-34" value="" style="group" vertex="1" connectable="0" parent="1">
          <mxGeometry x="800" y="410" width="50" height="60" as="geometry" />
        </mxCell>
        <mxCell id="YU8YC3hWGxVw7VaBo6HY-35" value="&amp;nbsp; x" style="rounded=0;whiteSpace=wrap;html=1;" vertex="1" parent="YU8YC3hWGxVw7VaBo6HY-34">
          <mxGeometry width="50" height="60" as="geometry" />
        </mxCell>
        <mxCell id="YU8YC3hWGxVw7VaBo6HY-36" value="" style="rounded=0;whiteSpace=wrap;html=1;" vertex="1" parent="YU8YC3hWGxVw7VaBo6HY-34">
          <mxGeometry width="10" height="60" as="geometry" />
        </mxCell>
        <mxCell id="YU8YC3hWGxVw7VaBo6HY-37" value="" style="group" vertex="1" connectable="0" parent="1">
          <mxGeometry x="590" y="520" width="160" height="120" as="geometry" />
        </mxCell>
        <mxCell id="YU8YC3hWGxVw7VaBo6HY-38" value="Выбор заданий" style="rounded=0;whiteSpace=wrap;html=1;labelPosition=center;verticalLabelPosition=middle;align=center;verticalAlign=middle;" vertex="1" parent="YU8YC3hWGxVw7VaBo6HY-37">
          <mxGeometry width="160" height="120" as="geometry" />
        </mxCell>
        <mxCell id="YU8YC3hWGxVw7VaBo6HY-39" value="" style="rounded=0;whiteSpace=wrap;html=1;" vertex="1" parent="YU8YC3hWGxVw7VaBo6HY-37">
          <mxGeometry y="85.71428571428571" width="160" height="34.285714285714285" as="geometry" />
        </mxCell>
        <mxCell id="YU8YC3hWGxVw7VaBo6HY-40" value="1.6" style="rounded=0;whiteSpace=wrap;html=1;align=left;" vertex="1" parent="YU8YC3hWGxVw7VaBo6HY-37">
          <mxGeometry y="85.71428571428571" width="80" height="34.285714285714285" as="geometry" />
        </mxCell>
        <mxCell id="YU8YC3hWGxVw7VaBo6HY-41" value="" style="group" vertex="1" connectable="0" parent="1">
          <mxGeometry x="590" y="655" width="160" height="120" as="geometry" />
        </mxCell>
        <mxCell id="YU8YC3hWGxVw7VaBo6HY-42" value="Выполнить Архивацию/Разархивацию" style="rounded=0;whiteSpace=wrap;html=1;labelPosition=center;verticalLabelPosition=middle;align=center;verticalAlign=middle;" vertex="1" parent="YU8YC3hWGxVw7VaBo6HY-41">
          <mxGeometry width="160" height="120" as="geometry" />
        </mxCell>
        <mxCell id="YU8YC3hWGxVw7VaBo6HY-43" value="" style="rounded=0;whiteSpace=wrap;html=1;" vertex="1" parent="YU8YC3hWGxVw7VaBo6HY-41">
          <mxGeometry y="85.71428571428571" width="160" height="34.285714285714285" as="geometry" />
        </mxCell>
        <mxCell id="YU8YC3hWGxVw7VaBo6HY-44" value="1.7" style="rounded=0;whiteSpace=wrap;html=1;align=left;" vertex="1" parent="YU8YC3hWGxVw7VaBo6HY-41">
          <mxGeometry y="85.71428571428571" width="80" height="34.285714285714285" as="geometry" />
        </mxCell>
        <mxCell id="YU8YC3hWGxVw7VaBo6HY-45" value="" style="group" vertex="1" connectable="0" parent="1">
          <mxGeometry x="590" y="380" width="160" height="120" as="geometry" />
        </mxCell>
        <mxCell id="YU8YC3hWGxVw7VaBo6HY-46" value="Выбор материалов" style="rounded=0;whiteSpace=wrap;html=1;labelPosition=center;verticalLabelPosition=middle;align=center;verticalAlign=middle;" vertex="1" parent="YU8YC3hWGxVw7VaBo6HY-45">
          <mxGeometry width="160" height="120" as="geometry" />
        </mxCell>
        <mxCell id="YU8YC3hWGxVw7VaBo6HY-47" value="" style="rounded=0;whiteSpace=wrap;html=1;" vertex="1" parent="YU8YC3hWGxVw7VaBo6HY-45">
          <mxGeometry y="85.71428571428571" width="160" height="34.285714285714285" as="geometry" />
        </mxCell>
        <mxCell id="YU8YC3hWGxVw7VaBo6HY-48" value="1.5" style="rounded=0;whiteSpace=wrap;html=1;align=left;" vertex="1" parent="YU8YC3hWGxVw7VaBo6HY-45">
          <mxGeometry y="85.71428571428571" width="80" height="34.285714285714285" as="geometry" />
        </mxCell>
        <mxCell id="YU8YC3hWGxVw7VaBo6HY-59" style="edgeStyle=orthogonalEdgeStyle;rounded=0;orthogonalLoop=1;jettySize=auto;html=1;entryX=1;entryY=0.5;entryDx=0;entryDy=0;" edge="1" parent="1" source="YU8YC3hWGxVw7VaBo6HY-35" target="YU8YC3hWGxVw7VaBo6HY-46">
          <mxGeometry relative="1" as="geometry" />
        </mxCell>
        <mxCell id="YU8YC3hWGxVw7VaBo6HY-60" style="edgeStyle=orthogonalEdgeStyle;rounded=0;orthogonalLoop=1;jettySize=auto;html=1;entryX=1;entryY=0.5;entryDx=0;entryDy=0;" edge="1" parent="1" source="YU8YC3hWGxVw7VaBo6HY-35" target="YU8YC3hWGxVw7VaBo6HY-38">
          <mxGeometry relative="1" as="geometry" />
        </mxCell>
        <mxCell id="YU8YC3hWGxVw7VaBo6HY-61" style="edgeStyle=orthogonalEdgeStyle;rounded=0;orthogonalLoop=1;jettySize=auto;html=1;entryX=1;entryY=0.5;entryDx=0;entryDy=0;" edge="1" parent="1" source="YU8YC3hWGxVw7VaBo6HY-35" target="YU8YC3hWGxVw7VaBo6HY-42">
          <mxGeometry relative="1" as="geometry" />
        </mxCell>
        <mxCell id="YU8YC3hWGxVw7VaBo6HY-62" style="edgeStyle=orthogonalEdgeStyle;rounded=0;orthogonalLoop=1;jettySize=auto;html=1;entryX=1;entryY=0.5;entryDx=0;entryDy=0;exitX=0;exitY=0.5;exitDx=0;exitDy=0;" edge="1" parent="1" source="YU8YC3hWGxVw7VaBo6HY-74">
          <mxGeometry relative="1" as="geometry">
            <mxPoint x="370" y="580" as="targetPoint" />
          </mxGeometry>
        </mxCell>
        <mxCell id="YU8YC3hWGxVw7VaBo6HY-64" value="" style="group" vertex="1" connectable="0" parent="1">
          <mxGeometry x="210" y="520" width="160" height="120" as="geometry" />
        </mxCell>
        <mxCell id="YU8YC3hWGxVw7VaBo6HY-65" value="Отправка на проверку" style="rounded=0;whiteSpace=wrap;html=1;labelPosition=center;verticalLabelPosition=middle;align=center;verticalAlign=middle;" vertex="1" parent="YU8YC3hWGxVw7VaBo6HY-64">
          <mxGeometry width="160" height="120" as="geometry" />
        </mxCell>
        <mxCell id="YU8YC3hWGxVw7VaBo6HY-66" value="" style="rounded=0;whiteSpace=wrap;html=1;" vertex="1" parent="YU8YC3hWGxVw7VaBo6HY-64">
          <mxGeometry y="85.71428571428571" width="160" height="34.285714285714285" as="geometry" />
        </mxCell>
        <mxCell id="YU8YC3hWGxVw7VaBo6HY-67" value="1.8" style="rounded=0;whiteSpace=wrap;html=1;align=left;" vertex="1" parent="YU8YC3hWGxVw7VaBo6HY-64">
          <mxGeometry y="85.71428571428571" width="80" height="34.285714285714285" as="geometry" />
        </mxCell>
        <mxCell id="YU8YC3hWGxVw7VaBo6HY-72" value="" style="group" vertex="1" connectable="0" parent="1">
          <mxGeometry x="430" y="550" width="50" height="60" as="geometry" />
        </mxCell>
        <mxCell id="YU8YC3hWGxVw7VaBo6HY-73" value="&amp;nbsp; x" style="rounded=0;whiteSpace=wrap;html=1;" vertex="1" parent="YU8YC3hWGxVw7VaBo6HY-72">
          <mxGeometry width="50" height="60" as="geometry" />
        </mxCell>
        <mxCell id="YU8YC3hWGxVw7VaBo6HY-74" value="" style="rounded=0;whiteSpace=wrap;html=1;" vertex="1" parent="YU8YC3hWGxVw7VaBo6HY-72">
          <mxGeometry width="10" height="60" as="geometry" />
        </mxCell>
        <mxCell id="YU8YC3hWGxVw7VaBo6HY-75" style="edgeStyle=orthogonalEdgeStyle;rounded=0;orthogonalLoop=1;jettySize=auto;html=1;entryX=1;entryY=0.5;entryDx=0;entryDy=0;" edge="1" parent="1" source="YU8YC3hWGxVw7VaBo6HY-46" target="YU8YC3hWGxVw7VaBo6HY-73">
          <mxGeometry relative="1" as="geometry" />
        </mxCell>
        <mxCell id="YU8YC3hWGxVw7VaBo6HY-84" style="edgeStyle=orthogonalEdgeStyle;rounded=0;orthogonalLoop=1;jettySize=auto;html=1;" edge="1" parent="1" source="YU8YC3hWGxVw7VaBo6HY-38" target="YU8YC3hWGxVw7VaBo6HY-73">
          <mxGeometry relative="1" as="geometry" />
        </mxCell>
        <mxCell id="YU8YC3hWGxVw7VaBo6HY-85" style="edgeStyle=orthogonalEdgeStyle;rounded=0;orthogonalLoop=1;jettySize=auto;html=1;entryX=1;entryY=0.5;entryDx=0;entryDy=0;" edge="1" parent="1" source="YU8YC3hWGxVw7VaBo6HY-42" target="YU8YC3hWGxVw7VaBo6HY-73">
          <mxGeometry relative="1" as="geometry" />
        </mxCell>
      </root>
    </mxGraphModel>
  </diagram>
</mxfile>
